<?xml version="1.0" encoding="UTF-8"?><svg id="Layer_2" xmlns="http://www.w3.org/2000/svg" viewBox="0 0 24 24"><defs><style>.cls-1{fill:#1971d4;}.cls-2{fill:#fff;opacity:0;}</style></defs><g id="Layer_1-2"><g id="Icon_24px_Vehicle"><path id="Path_823" class="cls-2" d="M0,0h24v24H0V0Z"/><path id="Path_883" class="cls-1" d="M18.9,5c-.1-.29-.28-.55-.54-.73-.25-.18-.55-.28-.86-.27h-.5v-.69c0-.17-.13-.3-.29-.3,0,0,0,0,0,0h-1.4c-.17,0-.3.13-.3.3,0,0,0,0,0,0v.69h-6v-.69c0-.17-.13-.3-.29-.3,0,0,0,0,0,0h-1.39c-.17,0-.3.13-.3.29,0,0,0,0,0,.01v.69h-.5c-.31,0-.61.09-.86.27-.25.18-.44.43-.54.73l-2.1,6v8c-.01.54.42.99.96,1,.01,0,.02,0,.04,0h1c.54.01.99-.42,1-.96,0-.01,0-.03,0-.04v-1h12v1c-.01.54.42.99.96,1,.01,0,.02,0,.04,0h1c.54.01.99-.42,1-.96,0-.01,0-.03,0-.04v-8l-2.1-6ZM6.85,6h10.3l1.05,3H5.8l1.05-3ZM8.73,12.45l-.63,1.23c-.06.12-.19.2-.33.2h-2.41c-.2,0-.37-.16-.36-.37h0v-1.23c0-.2.16-.36.36-.37h3.03c.2,0,.36.16.36.37,0,.06-.01.11-.04.17M19,13.56c0,.2-.16.36-.36.36h-2.41c-.14,0-.26-.08-.33-.2l-.63-1.23c-.09-.18-.02-.4.16-.49.05-.03.11-.04.17-.04h3.04c.2,0,.36.16.36.36v1.23Z"/></g></g></svg>