<?xml version="1.0" encoding="UTF-8"?>
<svg xmlns="http://www.w3.org/2000/svg" version="1.1" viewBox="0 0 24 24">
  <defs>
    <style>
      .cls-1 {
        fill: #1971d4;
      }

      .cls-2 {
        fill: #f7f8f9;
      }
    </style>
  </defs>
  <!-- Generator: Adobe Illustrator 28.7.10, SVG Export Plug-In . SVG Version: 1.2.0 Build 236)  -->
  <g>
    <g id="Layer_1">
      <g id="Layer_2">
        <g id="Group_7395">
          <path id="Path_903" class="cls-1" d="M24,12c0,6.6274166-5.3725834,12-12,12S0,18.6274166,0,12,5.3725829,0,12,0s12,5.3725829,12,12"/>
          <path id="Path_1004" class="cls-2" d="M16.0399933,8.1959934c-.055769-.1719894-.1659832-.3211651-.3140001-.4250002-.1471186-.105514-.3239622-.1615438-.5050001-.1600003h-.2889996v-.4070001c.0005913-.0983052-.0786219-.1784759-.1769266-.1790667-.0020247-.0000124-.0040493.00001-.006073.0000672h-.8170004c-.0983067-.0000019-.1780014.07969-.1780033.1779966,0,.0003343.000001.000669.0000029.0010033v.4070001h-3.5099993v-.4070001c.0005522-.0983052-.0786924-.1784449-.1769972-.178997-.0003347-.0000019-.0006685-.0000029-.0010033-.0000029h-.8140001c-.0983047-.0005536-.1784458.0786891-.1789999.1769948-.0000038.0006685-.0000038.0013366,0,.0020051v.4070001h-.2920008c-.1793633-.0006919-.3543596.0553069-.5.1600003-.1484919.1035709-.2591.2528024-.3150001.4249997l-1.2339997,3.5120001v4.6829996c-.0055718.3175144.2473078.5794277.5648232.5849991.0067253.0001183.0134521.0001183.0201769,0h.585c.3169518.0061359.5788651-.2458324.585-.5627842.0001431-.0074043.0001431-.0148106,0-.0222149v-.5860004h7.0250006v.5849991c-.0055714.3175144.2473078.5794296.5648232.5849991.0067253.0001183.0134525.0001183.0201778,0h.5849991c.3169518.0061359.5788651-.2458324.5849991-.5627842.0001431-.0074043.0001431-.0148106,0-.0222149v-4.6819992s-1.2270012-3.5120001-1.2269993-3.5119991ZM8.9859943,8.7809935h6.0300007l.6159992,1.7559996h-7.2609997s.6149998-1.7560005.6149998-1.7559996ZM10.0859938,12.5599937l-.3669996.7220001c-.036993.0713158-.1106606.1160555-.191.1160002h-1.4119997c-.1181889,0-.2140002-.0958109-.2140002-.2139997v-.7210007c.0005474-.1179619.0960388-.2134523.2140002-.2139997h1.7790003c.1181889.0004158.2136621.0965633.2132454.2147522-.0001183.0334587-.0080795.0664234-.0232449.0962477M16.0979939,13.2059937c0,.1181889-.0958118.2139997-.2139997.2139997h-1.4110003c-.0803394.0000553-.154007-.0446844-.191-.1160002l-.3669996-.7209997c-.0535717-.1047306-.0121002-.2330599.0926304-.2866316.030138-.0154161.0635166-.023427.0973692-.0233688h1.7790003c.1178007-.000001.2134504.0952024.2139997.2130003v.7200003Z"/>
        </g>
      </g>
    </g>
  </g>
</svg>