<?xml version="1.0" encoding="UTF-8"?><svg id="Layer_2" xmlns="http://www.w3.org/2000/svg" xmlns:xlink="http://www.w3.org/1999/xlink" viewBox="0 0 24 24"><defs><style>.cls-1{fill:none;}.cls-2{fill:#1ca3c2;}.cls-3{fill:#fff;opacity:0;}.cls-4{clip-path:url(#clippath);}</style><clipPath id="clippath"><rect class="cls-1" width="24" height="24"/></clipPath></defs><g id="Layer_1-2"><g id="Icon_24px_Electric"><path id="Path_874" class="cls-3" d="M0,0h24v24H0V0Z"/><g id="Group_6826"><g id="Group_6825"><g class="cls-4"><g id="Group_6824"><path id="Path_873" class="cls-2" d="M19.06,4.33c.42-.52.37-.93.18-1.14s-.63-.3-1.12.03c-2.82,1.74-5.85,3.49-8.78,5.18-.86.5-1.72.99-2.57,1.48-.38.24-.57.49-.57.75s.21.51.61.74c.37.21.75.42,1.16.64.79.43,1.6.87,2.32,1.32-1,1.34-2.07,2.62-3.2,3.84-.73.82-1.49,1.66-2.15,2.47-.41.51-.37.92-.18,1.13.13.14.33.22.52.21.23,0,.46-.08.66-.2l.06-.04h0c2.28-1.42,4.67-2.81,6.98-4.16,1.4-.82,2.85-1.66,4.25-2.49.41-.24.62-.51.62-.79s-.2-.52-.58-.73-.81-.44-1.21-.65c-.78-.39-1.54-.83-2.27-1.31.94-1.31,2.21-2.77,3.44-4.18.65-.74,1.26-1.45,1.82-2.12"/></g></g></g></g></g></g></svg>