<?xml version="1.0" encoding="UTF-8"?><svg id="Layer_2" xmlns="http://www.w3.org/2000/svg" viewBox="0 0 56 56"><defs><style>.cls-1{fill:#fff;}.cls-2{fill:#0d2e7f;}</style></defs><g id="Layer_1-2"><circle class="cls-2" cx="28" cy="28" r="28"/><path class="cls-1" d="M40.24,18.39h.13v-.98h-.13c-.83,0-1.5.67-1.5,1.5v1.03c-.38.12-.67.47-.67.89v2.85c0,.42.28.77.67.89v8.06c0,1.18-.96,2.14-2.14,2.14h-.31v-13.91c0-2.5-2.03-4.53-4.53-4.53h-7.13c-2.5,0-4.53,2.03-4.53,4.53v18.82h11.66c2.3,0,4.19-1.71,4.49-3.92h.35c1.72,0,3.13-1.4,3.13-3.13v-8.06c.38-.12.65-.47.65-.89v-2.85c0-.42-.27-.76-.65-.89v-1.04c0-.29.23-.52.52-.52ZM34.26,23.68c0,.64-.52,1.16-1.16,1.16h-9.81c-.64,0-1.16-.52-1.16-1.16v-4.03c0-.64.52-1.16,1.16-1.16h9.81c.64,0,1.16.52,1.16,1.16v4.03Z"/></g></svg>