<?xml version="1.0" encoding="UTF-8"?><svg id="Layer_2" xmlns="http://www.w3.org/2000/svg" viewBox="0 0 24 24"><defs><style>.cls-1{fill:#2c9e2d;}.cls-2{fill:#fff;opacity:0;}</style></defs><g id="Layer_1-2"><path id="Path_875" class="cls-2" d="M0,0h24v24H0V0Z"/><path id="Path_872" class="cls-1" d="M20.53,4.1c-.15-.11-.35-.13-.51-.04-1.32.71-3.85,1.07-6.53,1.45-1.36.19-2.76.39-4.01.64-4.38.88-6.2,4.62-6.2,6.43.06,1.03.45,2.01,1.1,2.81.1.14.27.21.44.19.17-.02.31-.13.37-.29,2.45-5.98,8.2-7.15,10.42-7.39-6.88,1.87-8.8,6.68-10.5,10.94l-.08.2c-.1.24.02.52.26.61,0,0,.02,0,.02,0l.91.32c.24.08.5-.03.59-.27l.55-1.33c.06-.15.23-.23.38-.18.28.09.56.14.86.16,3.45,0,6.38-1.87,8.73-5.56,1.53-2.54,2.66-5.31,3.35-8.2.05-.18-.02-.37-.17-.49"/></g></svg>