<?xml version="1.0" encoding="utf-8"?>
<!-- Generator: Adobe Illustrator 23.0.5, SVG Export Plug-In . SVG Version: 6.00 Build 0)  -->
<svg version="1.1" id="Subaru_Logo" xmlns="http://www.w3.org/2000/svg" xmlns:xlink="http://www.w3.org/1999/xlink" x="0px"
	 y="0px" viewBox="0 0 359 213.1" style="enable-background:new 0 0 359 213.1;" xml:space="preserve">
<style type="text/css">
	.st0{fill:#004489;}
	.st1{fill:#004589;}
	.st2{fill:#00468A;}
	.st3{fill:#00478B;}
	.st4{fill:#00488C;}
	.st5{fill:#00498C;}
	.st6{fill:#00498D;}
	.st7{fill:#004A8D;}
	.st8{fill:#004B8E;}
	.st9{fill:#004C8E;}
	.st10{fill:#004D8F;}
	.st11{fill:#004D90;}
	.st12{fill:#004E90;}
	.st13{fill:#014F90;}
	.st14{fill:#044F91;}
	.st15{fill:#085091;}
	.st16{fill:#0B5092;}
	.st17{fill:#0E5192;}
	.st18{fill:#145292;}
	.st19{fill:#165293;}
	.st20{fill:#185394;}
	.st21{fill:#1B5394;}
	.st22{fill:#1C5494;}
	.st23{fill:#1E5495;}
	.st24{fill:#1F5595;}
	.st25{fill:#225595;}
	.st26{fill:#235696;}
	.st27{fill:#255796;}
	.st28{fill:#285897;}
	.st29{fill:#295897;}
	.st30{fill:#2A5998;}
	.st31{fill:#2C5998;}
	.st32{fill:#2D5A99;}
	.st33{fill:#2E5B99;}
	.st34{fill:#2F5B99;}
	.st35{fill:#315C9A;}
	.st36{fill:#325C9A;}
	.st37{fill:#335D9B;}
	.st38{fill:#355D9B;}
	.st39{fill:#375F9C;}
	.st40{fill:#38609D;}
	.st41{fill:#3A609D;}
	.st42{fill:#3B609D;}
	.st43{fill:#3C619D;}
	.st44{fill:#3D619D;}
	.st45{fill:#3E629E;}
	.st46{fill:#3F639F;}
	.st47{fill:#40649F;}
	.st48{fill:#41649F;}
	.st49{fill:#4365A0;}
	.st50{fill:#4566A1;}
	.st51{fill:#4666A1;}
	.st52{fill:#4767A2;}
	.st53{fill:#4868A2;}
	.st54{fill:#4968A2;}
	.st55{fill:#4A69A3;}
	.st56{fill:#4B6AA4;}
	.st57{fill:#4C6BA4;}
	.st58{fill:#4D6BA4;}
	.st59{fill:#4F6CA5;}
	.st60{fill:#506DA6;}
	.st61{fill:#516EA6;}
	.st62{fill:#526EA7;}
	.st63{fill:#536FA7;}
	.st64{fill:#546FA7;}
	.st65{fill:#5570A8;}
	.st66{fill:#5671A9;}
	.st67{fill:#5771A9;}
	.st68{fill:#5872A9;}
	.st69{fill:#5A74AA;}
	.st70{fill:#5B74AB;}
	.st71{fill:#5C75AB;}
	.st72{fill:#5D76AC;}
	.st73{fill:#5E76AC;}
	.st74{fill:#5F77AC;}
	.st75{fill:#6078AD;}
	.st76{fill:#6179AE;}
	.st77{fill:#6279AE;}
	.st78{fill:#637AAE;}
	.st79{fill:#647BAF;}
	.st80{fill:#667CB0;}
	.st81{fill:#677DB0;}
	.st82{fill:#687EB1;}
	.st83{fill:#697EB1;}
	.st84{fill:#6A7FB1;}
	.st85{fill:#6B80B2;}
	.st86{fill:#6C81B3;}
	.st87{fill:#6D81B3;}
	.st88{fill:#6E82B4;}
	.st89{fill:#6F83B4;}
	.st90{fill:#7184B5;}
	.st91{fill:#7285B6;}
	.st92{fill:#7386B6;}
	.st93{fill:#7486B6;}
	.st94{fill:#7587B7;}
	.st95{fill:#7688B7;}
	.st96{fill:#7788B8;}
	.st97{fill:#7889B8;}
	.st98{fill:#798AB9;}
	.st99{fill:#7A8BB9;}
	.st100{fill:#7C8CBA;}
	.st101{fill:#7D8DBB;}
	.st102{fill:#7E8EBB;}
	.st103{fill:#7F8EBC;}
	.st104{fill:#808FBC;}
	.st105{fill:#8090BD;}
	.st106{fill:#8291BD;}
	.st107{fill:#8392BE;}
	.st108{fill:#8492BE;}
	.st109{fill:#8493BF;}
	.st110{fill:#8795C0;}
	.st111{fill:#8896C0;}
	.st112{fill:#8896C1;}
	.st113{fill:#8997C1;}
	.st114{fill:#8A98C2;}
	.st115{fill:#8B99C2;}
	.st116{fill:#8C99C3;}
	.st117{fill:#8D9AC3;}
	.st118{fill:#8E9BC4;}
	.st119{fill:#8F9BC4;}
	.st120{fill:#919DC5;}
	.st121{fill:#929EC6;}
	.st122{fill:#939FC6;}
	.st123{fill:#94A0C7;}
	.st124{fill:#95A0C7;}
	.st125{fill:#96A1C8;}
	.st126{fill:#97A2C8;}
	.st127{fill:#98A3C9;}
	.st128{fill:#99A4C9;}
	.st129{fill:#9AA4C9;}
	.st130{fill:#9AA5CA;}
	.st131{fill:#9DA7CC;}
	.st132{fill:#9EA8CC;}
	.st133{fill:#9FA9CD;}
	.st134{fill:#A0AACD;}
	.st135{fill:#A2ABCE;}
	.st136{fill:#A2ACCE;}
	.st137{fill:#A3ADCF;}
	.st138{fill:#A4ADCF;}
	.st139{fill:#A5AECF;}
	.st140{fill:#A7B0D1;}
	.st141{fill:#A8B1D1;}
	.st142{fill:#A9B1D2;}
	.st143{fill:url(#path364_1_);}
	.st144{fill:url(#path368_1_);}
	.st145{fill:none;stroke:#000000;stroke-width:1.8107;}
	.st146{fill:none;stroke:#000000;stroke-width:0.9052;}
	.st147{fill:none;}
	.st148{fill:url(#path411_1_);}
	.st149{fill:url(#path422_1_);}
	.st150{fill:url(#path433_1_);}
	.st151{fill:url(#path448_1_);}
	.st152{fill:url(#path467_1_);}
	.st153{fill:url(#path476_1_);}
	.st154{fill:url(#path489_1_);}
	.st155{fill:url(#path502_1_);}
	.st156{fill:url(#path515_1_);}
	.st157{fill:url(#path530_1_);}
	.st158{fill:url(#path543_1_);}
	.st159{fill:url(#path564_1_);}
	.st160{fill:url(#path571_1_);}
	.st161{fill:url(#path604_1_);}
	.st162{fill:url(#path613_1_);}
	.st163{fill:url(#path622_1_);}
	.st164{fill:url(#path653_1_);}
	.st165{fill:url(#path668_1_);}
	.st166{fill:url(#path679_1_);}
	.st167{fill:url(#path700_1_);}
	.st168{fill:url(#path715_1_);}
	.st169{fill:url(#path730_1_);}
	.st170{fill:url(#path743_1_);}
	.st171{fill:url(#path758_1_);}
	.st172{fill:url(#path771_1_);}
	.st173{fill:url(#path792_1_);}
	.st174{fill:url(#path799_1_);}
	.st175{fill:url(#path832_1_);}
	.st176{fill:url(#path853_1_);}
	.st177{fill:url(#path868_1_);}
	.st178{fill:url(#path889_1_);}
	.st179{fill:url(#path902_1_);}
	.st180{fill:url(#path917_1_);}
	.st181{fill:url(#path934_1_);}
	.st182{fill:url(#path949_1_);}
	.st183{fill:url(#path970_1_);}
	.st184{fill:url(#path979_1_);}
	.st185{fill:url(#path988_1_);}
	.st186{fill:url(#path1011_1_);}
	.st187{fill:url(#path1028_1_);}
	.st188{fill:url(#path1057_1_);}
	.st189{fill:url(#path1066_1_);}
	.st190{fill:url(#path1077_1_);}
	.st191{fill:url(#path1094_1_);}
	.st192{fill:url(#path1113_1_);}
	.st193{fill:url(#path1136_1_);}
	.st194{fill:url(#path1157_1_);}
	.st195{fill:url(#path1166_1_);}
	.st196{fill:url(#path1185_1_);}
	.st197{fill:url(#path1200_1_);}
	.st198{fill:url(#path1215_1_);}
	.st199{fill:url(#path1232_1_);}
	.st200{fill:url(#path1261_1_);}
	.st201{fill:url(#path1282_1_);}
	.st202{fill:url(#path1301_1_);}
	.st203{fill:url(#path1318_1_);}
	.st204{fill:url(#path1339_1_);}
	.st205{fill:url(#path1350_1_);}
	.st206{fill:url(#path1371_1_);}
	.st207{fill:url(#path1396_1_);}
	.st208{fill:url(#path1415_1_);}
	.st209{fill:url(#path1428_1_);}
	.st210{fill:url(#path1443_1_);}
</style>
<title>Subaru Logo</title>
<desc>For more information see:</desc>
<path id="path3" d="M43.6,166.1c3.8,0.5,7.8,1.2,10.1,4.8c2,2.8,1.9,6.4,2,10H43.6c0-1.4,0-2.7-0.7-3.8c-2.6-2-6.3-1.1-9.7-1.3
	c-6.7,0-13.1-0.2-19.3,0.5c-0.7,0.2-1.6,1.1-1.9,1.9c-0.2,1.1-0.2,2.5,0.7,3.4l1.3,1c10.6,0.9,20.9,1.1,31.7,1.9
	c3.6,0.5,7.2,1.9,9.2,5.4c3,5.3,2.5,13.7-1.4,18.5c-2.9,3.4-6.9,3.9-11,4c-10.1,0.5-20.9,0.7-31-0.2c-3.5-0.4-6.8-1.5-9.1-4.5
	c-2-3.3-2.4-7.5-2.4-11.6l12.2,0.1c-0.1,2-0.1,4.2,1.9,5.2c9.4,0.7,19.8,0.8,29.1-0.2c0.9-0.3,1.6-1.3,1.8-2.2
	c0.2-1.6-0.1-3.2-1.5-4.1l-2-0.5l-30.4-1.8c-4.2-0.7-8.9-2.8-10.3-7.3c-1.2-4.4-1.4-9.8,1.4-13.6c5.2-7.1,14.3-5.3,22.2-6.1
	L43.6,166.1z"/>
<path id="path5" d="M73.7,198.1c0.5,1.1,1.4,2.3,2.5,2.9c8.2,0.8,17.9,1.2,25.9-0.4c1.3-0.7,2.1-2.1,2-3.7v-30.8l12.5,0l-0.2,35.3
	c-0.7,3.5-1.9,7.1-6.1,9.9c-2.6,1.6-5.9,1.7-9.1,1.8l-28.6-0.2c-3.9-0.3-7.9-3.5-9.7-7.2l-1.2-3.7l-0.2-36h11.9L73.7,198.1z"/>
<path id="path7" d="M316.3,198.1c0.5,1.1,1.3,2.3,2.5,2.9c7.9,1,16.9,0.8,24.8,0.2c1.1-0.2,2.1-1.2,2.9-2.2l0.3-1.7v-31.1l12.3,0
	v35.6c-0.6,3.4-2.4,7.1-5.9,8.9c-2.6,1.6-6,2.1-9.2,2.1l-28.6-0.2c-3.9-0.3-7.9-3.2-9.8-6.9c-0.8-2-1.3-4.2-1.4-6.5v-33.1l12.2,0
	L316.3,198.1z"/>
<path id="path13" d="M293.5,190.6l1.7-1.2c4.7-5.5,3.4-12.6,1-17.7c-3.4-5.4-7.8-5.3-9.8-5.5l-42.1,0l-0.1,46.5h12.3l0-16.5l0-0.1
	h24.8c4.8,0.5,5,3.6,5.1,7.8c0,3,0,6.3,0,8.8h12.2C298.8,204.4,300.3,194.8,293.5,190.6z M283.8,185l-0.7,0l-26.6,0.1l0-8.7
	l26.8,0.2c1.1,0.4,2.1,1.1,2.5,2.2C286,180.5,286.8,183.5,283.8,185z"/>
<path id="path19" d="M216.1,166.2l-14,0l-25.4,46.7h14.1c1.5-2.7,2.7-5.2,4.5-8.2h27.1c1.8,2.9,2.9,5.2,4.4,8l14.6,0.1L216.1,166.2z
	 M200.2,194.9c2.5-5.6,5.8-10.9,8.4-16.4c3.2,5.2,5.6,10.9,8.6,16.3L200.2,194.9z"/>
<path id="path25" d="M172.4,187.7c4.4-2.8,4.3-8.8,3.4-13.4c-1-4.3-5.6-7.6-9.6-8.1l-43-0.1v46.7l0.4,0h37.9c3.5,0,7-0.3,9.9-1.6
	c3.5-1.7,5.2-5.3,5.9-8.8C177.9,197,177.5,190.5,172.4,187.7z M135.1,176.3l26.4,0.2c0.9,0.3,2,1.1,2.4,2.1c0.2,1.3,0.2,2.9-0.8,3.8
	c-0.8,1-2,1.1-3,1.4h-25V176.3L135.1,176.3z M163.7,200.9c-2,1.5-4.7,1.4-7.3,1.3c-7-0.1-14.2,0.2-21.2-0.2v-8.6l26.1,0.2
	c1.1,0.4,2.4,1,3,2.2C165,197.4,165,199.6,163.7,200.9z"/>
<path id="path33" class="st0" d="M301,70.9c0,34.1-53.5,61.8-119.6,61.8c-66,0-119.6-27.7-119.6-61.8c0-34.1,53.5-61.8,119.6-61.8
	C247.5,9.1,301,36.7,301,70.9z"/>
<path id="path37" class="st0" d="M244.2,52.9c0.4,14.7-37.4,50.3-93.3,50.3c-55.8,0-92.1-10.6-92.1-41.6c0-30.9,45.3-53.8,101.1-56
	C229.1,3,243.3,21.8,244.2,52.9z"/>
<path id="path39" class="st0" d="M243.6,52.9c0.4,14.7-37.2,50-92.8,50c-55.5,0-91.6-10.6-91.6-41.3c0-30.8,45.1-53.5,100.5-55.7
	C228.5,3.2,242.7,21.9,243.6,52.9z"/>
<path id="path41" class="st1" d="M242.9,52.8c0.4,14.6-37,49.8-92.2,49.8c-55.2,0-91.1-10.5-91.1-41.1c0-30.6,44.8-53.2,100-55.4
	C227.9,3.5,242,22,242.9,52.8z"/>
<path id="path43" class="st2" d="M242.2,52.8c0.4,14.5-36.8,49.5-91.7,49.5S59.9,91.8,59.9,61.4c0-30.4,44.5-52.9,99.4-55
	C227.3,3.7,241.4,22.2,242.2,52.8z"/>
<path id="path45" class="st2" d="M241.6,52.7c0.4,14.5-36.6,49.2-91.2,49.2c-54.6,0-90.1-10.5-90.1-40.7c0-30.2,44.3-52.6,98.8-54.7
	C226.7,3.9,240.7,22.3,241.6,52.7z"/>
<path id="path47" class="st2" d="M240.9,52.7c0.4,14.4-36.4,48.9-90.7,48.9c-54.3,0-89.6-10.4-89.6-40.5c0-30.1,44-52.3,98.3-54.4
	C226.1,4.1,240.1,22.4,240.9,52.7z"/>
<path id="path49" class="st3" d="M240.3,52.6c0.4,14.3-36.2,48.6-90.2,48.6C96.1,101.3,61,90.9,61,61c0-29.9,43.8-52,97.7-54.1
	C225.5,4.4,239.4,22.6,240.3,52.6z"/>
<path id="path51" class="st4" d="M239.6,52.6c0.4,14.3-36,48.4-89.6,48.4c-53.6,0-88.6-10.3-88.6-40c0-29.7,43.5-51.7,97.1-53.8
	C224.9,4.6,238.8,22.7,239.6,52.6z"/>
<path id="path53" class="st4" d="M238.9,52.5c0.4,14.2-35.8,48.1-89.1,48.1c-53.3,0-88-10.3-88-39.8c0-29.5,43.3-51.4,96.6-53.5
	C224.3,4.8,238.1,22.8,238.9,52.5z"/>
<path id="path55" class="st5" d="M238.3,52.5c0.4,14.1-35.6,47.8-88.6,47.8c-53,0-87.5-10.2-87.5-39.6c0-29.4,43-51.1,96-53.1
	C223.6,5.1,237.5,22.9,238.3,52.5z"/>
<path id="path57" class="st5" d="M237.6,52.4c0.4,14.1-35.4,47.5-88.1,47.5c-52.7,0-87-10.2-87-39.4c0-29.2,42.8-50.8,95.4-52.8
	C223,5.3,236.8,23.1,237.6,52.4z"/>
<path id="path59" class="st6" d="M237,52.4c0.4,14-35.2,47.3-87.6,47.3c-52.4,0-86.5-10.1-86.5-39.1c0-29,42.5-50.5,94.8-52.5
	C222.4,5.5,236.2,23.2,237,52.4z"/>
<path id="path61" class="st7" d="M236.3,52.3c0.4,13.9-35,47-87,47c-52.1,0-86-10.1-86-38.9s42.2-50.2,94.3-52.2
	C221.8,5.7,235.5,23.3,236.3,52.3z"/>
<path id="path63" class="st7" d="M235.6,52.3C236,66.1,200.9,99,149.1,99c-51.7,0-85.5-10-85.5-38.7c0-28.7,42-49.9,93.7-51.9
	C221.2,6,234.8,23.5,235.6,52.3z"/>
<path id="path65" class="st8" d="M235,52.2c0.4,13.8-34.6,46.4-86,46.4c-51.4,0-85-10-85-38.5c0-28.5,41.7-49.6,93.1-51.6
	C220.6,6.2,234.2,23.6,235,52.2z"/>
<path id="path67" class="st8" d="M234.3,52.2c0.4,13.7-34.4,46.1-85.5,46.1c-51.1,0-84.5-10-84.5-38.3c0-28.3,41.5-49.3,92.6-51.3
	C220,6.4,233.5,23.7,234.3,52.2z"/>
<path id="path69" class="st9" d="M233.7,52.2c0.4,13.7-34.2,45.9-85,45.9c-50.8,0-84-9.9-84-38s41.2-49,92-50.9
	C219.4,6.7,232.9,23.8,233.7,52.2z"/>
<path id="path71" class="st10" d="M233,52.1c0.4,13.6-34,45.6-84.5,45.6c-50.5,0-83.4-9.9-83.4-37.8c0-28,41-48.7,91.4-50.6
	C218.8,6.9,232.2,24,233,52.1z"/>
<path id="path73" class="st11" d="M232.3,52.1c0.4,13.5-33.8,45.3-83.9,45.3c-50.2,0-82.9-9.8-82.9-37.6s40.7-48.4,90.8-50.3
	C218.2,7.1,231.6,24.1,232.3,52.1z"/>
<path id="path75" class="st12" d="M231.7,52c0.4,13.4-33.6,45-83.4,45c-49.9,0-82.4-9.8-82.4-37.4s40.5-48.1,90.3-50
	C217.6,7.3,230.9,24.2,231.7,52z"/>
<path id="path77" class="st12" d="M231,52c0.4,13.4-33.4,44.8-82.9,44.8c-49.5,0-81.9-9.7-81.9-37.2c0-27.4,40.2-47.8,89.7-49.7
	C217,7.6,230.3,24.4,231,52z"/>
<path id="path79" class="st13" d="M230.4,51.9c0.4,13.3-33.2,44.5-82.4,44.5c-49.2,0-81.4-9.7-81.4-36.9c0-27.3,39.9-47.5,89.1-49.4
	C216.4,7.8,229.6,24.5,230.4,51.9z"/>
<path id="path81" class="st14" d="M229.7,51.9c0.3,13.2-33,44.2-81.9,44.2c-48.9,0-80.9-9.6-80.9-36.7s39.7-47.2,88.6-49
	C215.8,8,229,24.6,229.7,51.9z"/>
<path id="path83" class="st15" d="M229,51.8c0.3,13.2-32.8,43.9-81.3,43.9c-48.6,0-80.4-9.6-80.4-36.5c0-26.9,39.4-46.9,88-48.7
	C215.2,8.2,228.3,24.7,229,51.8z"/>
<path id="path85" class="st16" d="M228.4,51.8c0.3,13.1-32.5,43.6-80.8,43.6c-48.3,0-79.9-9.5-79.9-36.3c0-26.7,39.2-46.6,87.4-48.4
	C214.6,8.5,227.6,24.9,228.4,51.8z"/>
<path id="path87" class="st17" d="M227.7,51.7c0.3,13-32.3,43.4-80.3,43.4c-48,0-79.4-9.5-79.4-36.1c0-26.6,38.9-46.3,86.9-48.1
	C214,8.7,227,25,227.7,51.7z"/>
<path id="path89" class="st18" d="M227.1,51.7c0.3,13-32.1,43.1-79.8,43.1c-47.7,0-78.8-9.4-78.8-35.8c0-26.4,38.7-46,86.3-47.8
	C213.4,8.9,226.3,25.1,227.1,51.7z"/>
<path id="path91" class="st19" d="M226.4,51.6c0.3,12.9-31.9,42.8-79.3,42.8c-47.3,0-78.3-9.4-78.3-35.6c0-26.2,38.4-45.7,85.7-47.5
	C212.8,9.2,225.7,25.3,226.4,51.6z"/>
<path id="path93" class="st20" d="M225.7,51.6c0.3,12.8-31.7,42.5-78.8,42.5c-47,0-77.8-9.4-77.8-35.4s38.1-45.4,85.1-47.1
	C212.2,9.4,225,25.4,225.7,51.6z"/>
<path id="path95" class="st21" d="M225.1,51.5c0.3,12.8-31.5,42.2-78.2,42.2c-46.7,0-77.3-9.3-77.3-35.2c0-25.9,37.9-45.1,84.6-46.8
	C211.6,9.6,224.4,25.5,225.1,51.5z"/>
<path id="path97" class="st22" d="M224.4,51.5c0.3,12.7-31.3,42-77.7,42c-46.4,0-76.8-9.3-76.8-34.9c0-25.7,37.6-44.8,84-46.5
	C211,9.8,223.7,25.6,224.4,51.5z"/>
<path id="path99" class="st23" d="M223.8,51.4c0.3,12.6-31.1,41.7-77.2,41.7c-46.1,0-76.3-9.2-76.3-34.7s37.4-44.5,83.4-46.2
	C210.4,10.1,223.1,25.8,223.8,51.4z"/>
<path id="path101" class="st24" d="M223.1,51.4c0.3,12.6-30.9,41.4-76.7,41.4c-45.8,0-75.8-9.2-75.8-34.5
	c0-25.3,37.1-44.2,82.9-45.9C209.8,10.3,222.4,25.9,223.1,51.4z"/>
<path id="path103" class="st25" d="M222.4,51.3c0.3,12.5-30.7,41.1-76.2,41.1c-45.4,0-75.3-9.1-75.3-34.3s36.9-43.9,82.3-45.6
	C209.1,10.5,221.8,26,222.4,51.3z"/>
<path id="path105" class="st26" d="M221.8,51.3c0.3,12.4-30.5,40.9-75.6,40.9c-45.1,0-74.8-9.1-74.8-34.1c0-25,36.6-43.6,81.7-45.2
	C208.5,10.8,221.1,26.1,221.8,51.3z"/>
<path id="path107" class="st27" d="M221.1,51.2c0.3,12.4-30.3,40.6-75.1,40.6c-44.8,0-74.2-9-74.2-33.8c0-24.8,36.4-43.3,81.1-44.9
	C207.9,11,220.5,26.3,221.1,51.2z"/>
<path id="path109" class="st28" d="M220.5,51.2c0.3,12.3-30.1,40.3-74.6,40.3c-44.5,0-73.7-9-73.7-33.6s36.1-43,80.6-44.6
	C207.3,11.2,219.8,26.4,220.5,51.2z"/>
<path id="path111" class="st29" d="M219.8,51.1c0.3,12.2-29.9,40-74.1,40c-44.2,0-73.2-8.9-73.2-33.4c0-24.5,35.8-42.7,80-44.3
	C206.7,11.4,219.1,26.5,219.8,51.1z"/>
<path id="path113" class="st30" d="M219.1,51.1c0.3,12.2-29.7,39.7-73.6,39.7c-43.9,0-72.7-8.9-72.7-33.2c0-24.3,35.6-42.4,79.4-44
	C206.1,11.7,218.5,26.7,219.1,51.1z"/>
<path id="path115" class="st31" d="M218.5,51.1c0.3,12.1-29.5,39.5-73,39.5c-43.6,0-72.2-8.8-72.2-33c0-24.1,35.3-42.1,78.9-43.7
	C205.5,11.9,217.8,26.8,218.5,51.1z"/>
<path id="path117" class="st32" d="M217.8,51c0.3,12-29.3,39.2-72.5,39.2c-43.2,0-71.7-8.8-71.7-32.7s35.1-41.8,78.3-43.4
	C204.9,12.1,217.2,26.9,217.8,51z"/>
<path id="path119" class="st33" d="M217.2,51c0.3,12-29.1,38.9-72,38.9c-42.9,0-71.2-8.8-71.2-32.5s34.8-41.5,77.7-43
	C204.3,12.4,216.5,27,217.2,51z"/>
<path id="path121" class="st34" d="M216.5,50.9c0.3,11.9-28.9,38.6-71.5,38.6c-42.6,0-70.7-8.7-70.7-32.3
	c0-23.6,34.6-41.2,77.2-42.7C203.7,12.6,215.9,27.2,216.5,50.9z"/>
<path id="path123" class="st35" d="M215.8,50.9c0.3,11.8-28.7,38.3-71,38.3c-42.3,0-70.2-8.7-70.2-32.1c0-23.4,34.3-40.9,76.6-42.4
	C203.1,12.8,215.2,27.3,215.8,50.9z"/>
<path id="path125" class="st36" d="M215.2,50.8c0.3,11.8-28.5,38.1-70.5,38.1c-42,0-69.6-8.6-69.6-31.9s34.1-40.6,76-42.1
	C202.5,13,214.6,27.4,215.2,50.8z"/>
<path id="path127" class="st37" d="M214.5,50.8c0.3,11.7-28.3,37.8-69.9,37.8c-41.7,0-69.1-8.6-69.1-31.6s33.8-40.3,75.4-41.8
	C201.9,13.3,213.9,27.6,214.5,50.8z"/>
<path id="path129" class="st38" d="M213.9,50.7c0.3,11.6-28.1,37.5-69.4,37.5c-41.3,0-68.6-8.5-68.6-31.4c0-22.9,33.5-40,74.9-41.5
	C201.3,13.5,213.3,27.7,213.9,50.7z"/>
<path id="path131" class="st39" d="M213.2,50.7c0.3,11.6-27.9,37.2-68.9,37.2c-41,0-68.1-8.5-68.1-31.2s33.3-39.7,74.3-41.1
	C200.7,13.7,212.6,27.8,213.2,50.7z"/>
<path id="path133" class="st40" d="M212.5,50.6c0.3,11.5-27.7,37-68.4,37c-40.7,0-67.6-8.4-67.6-31c0-22.5,33-39.4,73.7-40.8
	C200.1,13.9,212,27.9,212.5,50.6z"/>
<path id="path135" class="st41" d="M211.9,50.6c0.3,11.4-27.5,36.7-67.9,36.7c-40.4,0-67.1-8.4-67.1-30.8
	c0-22.4,32.8-39.1,73.2-40.5C199.5,14.2,211.3,28.1,211.9,50.6z"/>
<path id="path137" class="st42" d="M211.2,50.5c0.3,11.4-27.3,36.4-67.3,36.4c-40.1,0-66.6-8.3-66.6-30.5
	c0-22.2,32.5-38.7,72.6-40.2C198.9,14.4,210.6,28.2,211.2,50.5z"/>
<path id="path139" class="st43" d="M210.6,50.5c0.3,11.3-27,36.1-66.8,36.1c-39.8,0-66.1-8.3-66.1-30.3s32.3-38.4,72-39.9
	C198.3,14.6,210,28.3,210.6,50.5z"/>
<path id="path141" class="st44" d="M209.9,50.4c0.3,11.2-26.8,35.8-66.3,35.8C104.1,86.3,78,78,78,56.2c0-21.8,32-38.1,71.4-39.6
	C197.7,14.9,209.3,28.5,209.9,50.4z"/>
<path id="path143" class="st45" d="M209.2,50.4c0.3,11.2-26.6,35.6-65.8,35.6c-39.1,0-65-8.2-65-29.9s31.8-37.8,70.9-39.2
	C197.1,15.1,208.7,28.6,209.2,50.4z"/>
<path id="path145" class="st46" d="M208.6,50.3c0.3,11.1-26.4,35.3-65.3,35.3c-38.8,0-64.5-8.2-64.5-29.7s31.5-37.5,70.3-38.9
	C196.5,15.3,208,28.7,208.6,50.3z"/>
<path id="path147" class="st47" d="M207.9,50.3c0.3,11-26.2,35-64.7,35c-38.5,0-64-8.1-64-29.4c0-21.3,31.2-37.2,69.7-38.6
	C195.9,15.5,207.4,28.8,207.9,50.3z"/>
<path id="path149" class="st48" d="M207.3,50.2c0.3,11-26,34.7-64.2,34.7c-38.2,0-63.5-8.1-63.5-29.2c0-21.1,31-36.9,69.2-38.3
	C195.3,15.8,206.7,29,207.3,50.2z"/>
<path id="path151" class="st49" d="M206.6,50.2c0.3,10.9-25.8,34.4-63.7,34.4c-37.9,0-63-8-63-29s30.7-36.6,68.6-38
	C194.7,16,206.1,29.1,206.6,50.2z"/>
<path id="path153" class="st50" d="M205.9,50.1c0.3,10.8-25.6,34.2-63.2,34.2c-37.6,0-62.5-8-62.5-28.8c0-20.8,30.5-36.3,68-37.7
	C194.1,16.2,205.4,29.2,205.9,50.1z"/>
<path id="path155" class="st51" d="M205.3,50.1c0.2,10.8-25.4,33.9-62.7,33.9c-37.3,0-62-7.9-62-28.6c0-20.6,30.2-36,67.5-37.3
	C193.4,16.5,204.8,29.3,205.3,50.1z"/>
<path id="path157" class="st52" d="M204.6,50c0.2,10.7-25.2,33.6-62.2,33.6c-36.9,0-61.5-7.9-61.5-28.3c0-20.5,30-35.7,66.9-37
	C192.8,16.7,204.1,29.5,204.6,50z"/>
<path id="path159" class="st53" d="M204,50c0.2,10.6-25,33.3-61.6,33.3c-36.6,0-61-7.8-61-28.1c0-20.3,29.7-35.4,66.3-36.7
	C192.2,16.9,203.4,29.6,204,50z"/>
<path id="path161" class="st54" d="M203.3,50c0.2,10.6-24.8,33.1-61.1,33.1c-36.3,0-60.4-7.8-60.4-27.9s29.5-35.1,65.7-36.4
	C191.6,17.1,202.8,29.7,203.3,50z"/>
<path id="path163" class="st55" d="M202.6,49.9c0.2,10.5-24.6,32.8-60.6,32.8c-36,0-59.9-7.7-59.9-27.7c0-19.9,29.2-34.8,65.2-36.1
	C191,17.4,202.1,29.9,202.6,49.9z"/>
<path id="path165" class="st56" d="M202,49.9c0.2,10.4-24.4,32.5-60.1,32.5c-35.7,0-59.4-7.7-59.4-27.5s28.9-34.5,64.6-35.8
	C190.4,17.6,201.5,30,202,49.9z"/>
<path id="path167" class="st57" d="M201.3,49.8c0.2,10.4-24.2,32.2-59.6,32.2c-35.4,0-58.9-7.7-58.9-27.2s28.7-34.2,64-35.5
	C189.8,17.8,200.8,30.1,201.3,49.8z"/>
<path id="path169" class="st58" d="M200.7,49.8c0.2,10.3-24,31.9-59,31.9c-35,0-58.4-7.6-58.4-27s28.4-33.9,63.5-35.1
	C189.2,18,200.2,30.2,200.7,49.8z"/>
<path id="path171" class="st59" d="M200,49.7c0.2,10.2-23.8,31.7-58.5,31.7c-34.7,0-57.9-7.6-57.9-26.8c0-19.2,28.2-33.6,62.9-34.8
	C188.6,18.3,199.5,30.4,200,49.7z"/>
<path id="path173" class="st60" d="M199.3,49.7c0.2,10.2-23.6,31.4-58,31.4S84,73.5,84,54.5s27.9-33.3,62.3-34.5
	C188,18.5,198.9,30.5,199.3,49.7z"/>
<path id="path175" class="st61" d="M198.7,49.6c0.2,10.1-23.4,31.1-57.5,31.1c-34.1,0-56.9-7.5-56.9-26.4s27.7-33,61.7-34.2
	C187.4,18.7,198.2,30.6,198.7,49.6z"/>
<path id="path177" class="st62" d="M198,49.6c0.2,10-23.2,30.8-57,30.8c-33.8,0-56.4-7.4-56.4-26.1s27.4-32.7,61.2-33.9
	C186.8,19,197.6,30.8,198,49.6z"/>
<path id="path179" class="st63" d="M197.4,49.5c0.2,10-23,30.5-56.5,30.5c-33.5,0-55.8-7.4-55.8-25.9c0-18.5,27.2-32.4,60.6-33.6
	C186.2,19.2,196.9,30.9,197.4,49.5z"/>
<path id="path181" class="st64" d="M196.7,49.5c0.2,9.9-22.8,30.3-55.9,30.3c-33.2,0-55.3-7.3-55.3-25.7s26.9-32.1,60-33.2
	C185.6,19.4,196.3,31,196.7,49.5z"/>
<path id="path183" class="st65" d="M196,49.4c0.2,9.8-22.6,30-55.4,30c-32.8,0-54.8-7.3-54.8-25.5s26.6-31.8,59.5-32.9
	C185,19.6,195.6,31.1,196,49.4z"/>
<path id="path185" class="st66" d="M195.4,49.4c0.2,9.8-22.4,29.7-54.9,29.7c-32.5,0-54.3-7.2-54.3-25.2c0-18,26.4-31.5,58.9-32.6
	C184.4,19.9,194.9,31.3,195.4,49.4z"/>
<path id="path187" class="st67" d="M194.7,49.3c0.2,9.7-22.2,29.4-54.4,29.4c-32.2,0-53.8-7.2-53.8-25c0-17.8,26.1-31.2,58.3-32.3
	C183.8,20.1,194.3,31.4,194.7,49.3z"/>
<path id="path189" class="st68" d="M194.1,49.3c0.2,9.6-22,29.2-53.9,29.2c-31.9,0-53.3-7.1-53.3-24.8s25.9-30.9,57.8-32
	C183.2,20.3,193.6,31.5,194.1,49.3z"/>
<path id="path191" class="st69" d="M193.4,49.2c0.2,9.5-21.8,28.9-53.3,28.9c-31.6,0-52.8-7.1-52.8-24.6s25.6-30.6,57.2-31.7
	C182.6,20.6,193,31.7,193.4,49.2z"/>
<path id="path193" class="st70" d="M192.7,49.2c0.2,9.5-21.6,28.6-52.8,28.6c-31.3,0-52.3-7.1-52.3-24.4s25.4-30.3,56.6-31.3
	C182,20.8,192.3,31.8,192.7,49.2z"/>
<path id="path195" class="st71" d="M192.1,49.1c0.2,9.4-21.4,28.3-52.3,28.3c-30.9,0-51.8-7-51.8-24.1s25.1-30,56-31
	C181.4,21,191.7,31.9,192.1,49.1z"/>
<path id="path197" class="st72" d="M191.4,49.1c0.2,9.3-21.1,28-51.8,28c-30.6,0-51.2-7-51.2-23.9s24.9-29.7,55.5-30.7
	C180.8,21.2,191,32,191.4,49.1z"/>
<path id="path199" class="st73" d="M190.8,49c0.2,9.3-20.9,27.8-51.3,27.8c-30.3,0-50.7-6.9-50.7-23.7c0-16.8,24.6-29.4,54.9-30.4
	C180.2,21.5,190.4,32.2,190.8,49z"/>
<path id="path201" class="st74" d="M190.1,49c0.2,9.2-20.7,27.5-50.7,27.5c-30,0-50.2-6.9-50.2-23.5c0-16.6,24.3-29.1,54.3-30.1
	C179.6,21.7,189.7,32.3,190.1,49z"/>
<path id="path203" class="st75" d="M189.5,48.9c0.2,9.1-20.5,27.2-50.2,27.2c-29.7,0-49.7-6.8-49.7-23.3s24.1-28.8,53.8-29.8
	C179,21.9,189.1,32.4,189.5,48.9z"/>
<path id="path205" class="st76" d="M188.8,48.9c0.2,9.1-20.3,26.9-49.7,26.9c-29.4,0-49.2-6.8-49.2-23c0-16.3,23.8-28.5,53.2-29.4
	C178.4,22.2,188.4,32.5,188.8,48.9z"/>
<path id="path207" class="st77" d="M188.1,48.9c0.2,9-20.1,26.7-49.2,26.7c-29.1,0-48.7-6.7-48.7-22.8c0-16.1,23.6-28.2,52.6-29.1
	C177.7,22.4,187.8,32.7,188.1,48.9z"/>
<path id="path209" class="st78" d="M187.5,48.8c0.2,8.9-19.9,26.4-48.7,26.4c-28.7,0-48.2-6.7-48.2-22.6s23.3-27.9,52-28.8
	C177.1,22.6,187.1,32.8,187.5,48.8z"/>
<path id="path211" class="st79" d="M186.8,48.8c0.2,8.9-19.7,26.1-48.2,26.1S91,68.2,91,52.5s23.1-27.6,51.5-28.5
	C176.5,22.8,186.4,32.9,186.8,48.8z"/>
<path id="path213" class="st80" d="M186.2,48.7c0.2,8.8-19.5,25.8-47.6,25.8c-28.1,0-47.2-6.6-47.2-22.2s22.8-27.3,50.9-28.2
	C175.9,23.1,185.8,33.1,186.2,48.7z"/>
<path id="path215" class="st81" d="M185.5,48.7c0.2,8.7-19.3,25.5-47.1,25.5c-27.8,0-46.6-6.6-46.6-21.9s22.5-27,50.3-27.9
	C175.3,23.3,185.1,33.2,185.5,48.7z"/>
<path id="path217" class="st82" d="M184.8,48.6c0.2,8.7-19.1,25.3-46.6,25.3c-27.5,0-46.1-6.5-46.1-21.7c0-15.2,22.3-26.7,49.8-27.6
	C174.7,23.5,184.5,33.3,184.8,48.6z"/>
<path id="path219" class="st83" d="M184.2,48.6c0.2,8.6-18.9,25-46.1,25c-27.2,0-45.6-6.5-45.6-21.5s22-26.4,49.2-27.2
	C174.1,23.7,183.8,33.4,184.2,48.6z"/>
<path id="path221" class="st84" d="M183.5,48.5c0.2,8.5-18.7,24.7-45.6,24.7s-45.1-6.4-45.1-21.3c0-14.9,21.8-26.1,48.6-26.9
	C173.5,24,183.2,33.6,183.5,48.5z"/>
<path id="path223" class="st85" d="M182.9,48.5c0.2,8.5-18.5,24.4-45,24.4c-26.5,0-44.6-6.4-44.6-21.1s21.5-25.8,48.1-26.6
	C172.9,24.2,182.5,33.7,182.9,48.5z"/>
<path id="path225" class="st86" d="M182.2,48.4c0.2,8.4-18.3,24.1-44.5,24.1c-26.2,0-44.1-6.3-44.1-20.8s21.3-25.5,47.5-26.3
	C172.3,24.4,181.9,33.8,182.2,48.4z"/>
<path id="path227" class="st87" d="M181.5,48.4c0.2,8.3-18.1,23.9-44,23.9C111.6,72.2,94,66,94,51.6s21-25.2,46.9-26
	C171.7,24.7,181.2,34,181.5,48.4z"/>
<path id="path229" class="st88" d="M180.9,48.3c0.2,8.3-17.9,23.6-43.5,23.6c-25.6,0-43.1-6.2-43.1-20.4c0-14.2,20.8-24.9,46.3-25.7
	C171.1,24.9,180.6,34.1,180.9,48.3z"/>
<path id="path231" class="st89" d="M180.2,48.3c0.2,8.2-17.7,23.3-43,23.3c-25.3,0-42.6-6.2-42.6-20.2s20.5-24.6,45.8-25.3
	C170.5,25.1,179.9,34.2,180.2,48.3z"/>
<path id="path233" class="st90" d="M179.6,48.2c0.2,8.1-17.5,23-42.4,23c-25,0-42-6.1-42-20s20.2-24.3,45.2-25
	C169.9,25.3,179.3,34.3,179.6,48.2z"/>
<path id="path235" class="st91" d="M178.9,48.2c0.2,8.1-17.3,22.8-41.9,22.8c-24.6,0-41.5-6.1-41.5-19.7c0-13.6,20-24,44.6-24.7
	C169.3,25.6,178.6,34.5,178.9,48.2z"/>
<path id="path237" class="st92" d="M178.2,48.1c0.2,8-17.1,22.5-41.4,22.5c-24.3,0-41-6-41-19.5c0-13.5,19.7-23.7,44.1-24.4
	C168.7,25.8,178,34.6,178.2,48.1z"/>
<path id="path239" class="st93" d="M177.6,48.1c0.2,7.9-16.9,22.2-40.9,22.2s-40.5-6-40.5-19.3c0-13.3,19.5-23.4,43.5-24.1
	C168.1,26,177.3,34.7,177.6,48.1z"/>
<path id="path241" class="st94" d="M176.9,48c0.2,7.9-16.7,21.9-40.4,21.9c-23.7,0-40-6-40-19.1s19.2-23.1,42.9-23.8
	C167.5,26.3,176.7,34.9,176.9,48z"/>
<path id="path243" class="st95" d="M176.3,48c0.1,7.8-16.5,21.6-39.9,21.6c-23.4,0-39.5-5.9-39.5-18.9c0-12.9,19-22.8,42.3-23.4
	C166.9,26.5,176,35,176.3,48z"/>
<path id="path245" class="st96" d="M175.6,47.9c0.1,7.7-16.3,21.4-39.3,21.4c-23.1,0-39-5.9-39-18.6c0-12.8,18.7-22.5,41.8-23.1
	C166.3,26.7,175.4,35.1,175.6,47.9z"/>
<path id="path247" class="st97" d="M174.9,47.9c0.1,7.7-16.1,21.1-38.8,21.1c-22.8,0-38.5-5.8-38.5-18.4c0-12.6,18.5-22.2,41.2-22.8
	C165.7,26.9,174.7,35.2,174.9,47.9z"/>
<path id="path249" class="st98" d="M174.3,47.8c0.1,7.6-15.9,20.8-38.3,20.8c-22.4,0-38-5.8-38-18.2s18.2-21.9,40.6-22.5
	C165.1,27.2,174,35.4,174.3,47.8z"/>
<path id="path251" class="st99" d="M173.6,47.8c0.1,7.5-15.7,20.5-37.8,20.5c-22.1,0-37.4-5.7-37.4-18c0-12.2,17.9-21.6,40.1-22.2
	C164.5,27.4,173.4,35.5,173.6,47.8z"/>
<path id="path253" class="st100" d="M173,47.8c0.1,7.5-15.5,20.2-37.3,20.2c-21.8,0-36.9-5.7-36.9-17.8s17.7-21.2,39.5-21.9
	C163.9,27.6,172.7,35.6,173,47.8z"/>
<path id="path255" class="st101" d="M172.3,47.7c0.1,7.4-15.2,20-36.7,20c-21.5,0-36.4-5.6-36.4-17.5c0-11.9,17.4-20.9,38.9-21.5
	C163.3,27.8,172.1,35.7,172.3,47.7z"/>
<path id="path257" class="st102" d="M171.6,47.7c0.1,7.3-15,19.7-36.2,19.7c-21.2,0-35.9-5.6-35.9-17.3c0-11.7,17.2-20.6,38.3-21.2
	C162.6,28.1,171.4,35.9,171.6,47.7z"/>
<path id="path259" class="st103" d="M171,47.6c0.1,7.3-14.8,19.4-35.7,19.4c-20.9,0-35.4-5.5-35.4-17.1c0-11.5,16.9-20.3,37.8-20.9
	C162,28.3,170.8,36,171,47.6z"/>
<path id="path261" class="st104" d="M170.3,47.6c0.1,7.2-14.6,19.1-35.2,19.1c-20.5,0-34.9-5.5-34.9-16.9c0-11.4,16.7-20,37.2-20.6
	C161.4,28.5,170.1,36.1,170.3,47.6z"/>
<path id="path263" class="st105" d="M169.7,47.5c0.1,7.1-14.4,18.9-34.7,18.9c-20.2,0-34.4-5.4-34.4-16.7
	c0-11.2,16.4-19.7,36.6-20.3C160.8,28.8,169.5,36.3,169.7,47.5z"/>
<path id="path265" class="st106" d="M169,47.5c0.1,7.1-14.2,18.6-34.1,18.6c-19.9,0-33.9-5.4-33.9-16.4c0-11,16.2-19.4,36.1-20
	C160.2,29,168.8,36.4,169,47.5z"/>
<path id="path267" class="st107" d="M168.3,47.4c0.1,7-14,18.3-33.6,18.3c-19.6,0-33.4-5.4-33.4-16.2c0-10.9,15.9-19.1,35.5-19.7
	C159.6,29.2,168.2,36.5,168.3,47.4z"/>
<path id="path269" class="st108" d="M167.7,47.4c0.1,6.9-13.8,18-33.1,18c-19.3,0-32.8-5.3-32.8-16s15.6-18.8,34.9-19.3
	C159,29.4,167.5,36.6,167.7,47.4z"/>
<path id="path271" class="st109" d="M167,47.3c0.1,6.9-13.6,17.7-32.6,17.7c-19,0-32.3-5.3-32.3-15.8c0-10.5,15.4-18.5,34.4-19
	C158.4,29.7,166.9,36.8,167,47.3z"/>
<path id="path273" class="st110" d="M166.4,47.3c0.1,6.8-13.4,17.5-32.1,17.5c-18.7,0-31.8-5.2-31.8-15.5
	c0-10.3,15.1-18.2,33.8-18.7C157.8,29.9,166.2,36.9,166.4,47.3z"/>
<path id="path275" class="st111" d="M165.7,47.2c0.1,6.7-13.2,17.2-31.6,17.2c-18.3,0-31.3-5.2-31.3-15.3
	c0-10.2,14.9-17.9,33.2-18.4C157.2,30.1,165.5,37,165.7,47.2z"/>
<path id="path277" class="st112" d="M165,47.2c0.1,6.7-13,16.9-31,16.9c-18,0-30.8-5.1-30.8-15.1c0-10,14.6-17.6,32.6-18.1
	C156.6,30.4,164.9,37.2,165,47.2z"/>
<path id="path279" class="st113" d="M164.4,47.1c0.1,6.6-12.8,16.6-30.5,16.6c-17.7,0-30.3-5.1-30.3-14.9c0-9.8,14.4-17.3,32.1-17.8
	C156,30.6,164.2,37.3,164.4,47.1z"/>
<path id="path281" class="st114" d="M163.7,47.1c0.1,6.5-12.6,16.3-30,16.3c-17.4,0-29.8-5-29.8-14.7c0-9.6,14.1-17,31.5-17.4
	C155.4,30.8,163.6,37.4,163.7,47.1z"/>
<path id="path283" class="st115" d="M163.1,47c0.1,6.5-12.4,16.1-29.5,16.1c-17.1,0-29.3-5-29.3-14.4c0-9.5,13.9-16.7,30.9-17.1
	C154.8,31,162.9,37.5,163.1,47z"/>
<path id="path285" class="st116" d="M162.4,47c0.1,6.4-12.2,15.8-29,15.8c-16.8,0-28.8-4.9-28.8-14.2c0-9.3,13.6-16.4,30.4-16.8
	C154.2,31.3,162.3,37.7,162.4,47z"/>
<path id="path287" class="st117" d="M161.7,46.9c0.1,6.3-12,15.5-28.4,15.5s-28.2-4.9-28.2-14c0-9.1,13.3-16.1,29.8-16.5
	C153.6,31.5,161.6,37.8,161.7,46.9z"/>
<path id="path289" class="st118" d="M161.1,46.9c0.1,6.3-11.8,15.2-27.9,15.2c-16.1,0-27.7-4.9-27.7-13.8c0-8.9,13.1-15.8,29.2-16.2
	C153,31.7,161,37.9,161.1,46.9z"/>
<path id="path291" class="st119" d="M160.4,46.8c0.1,6.2-11.6,15-27.4,15c-15.8,0-27.2-4.8-27.2-13.6c0-8.8,12.8-15.5,28.6-15.9
	C152.4,32,160.3,38.1,160.4,46.8z"/>
<path id="path293" class="st120" d="M159.8,46.8c0.1,6.1-11.4,14.7-26.9,14.7c-15.5,0-26.7-4.8-26.7-13.3c0-8.6,12.6-15.2,28.1-15.5
	C151.8,32.2,159.7,38.2,159.8,46.8z"/>
<path id="path295" class="st121" d="M159.1,46.7c0.1,6.1-11.2,14.4-26.4,14.4c-15.2,0-26.2-4.7-26.2-13.1s12.3-14.9,27.5-15.2
	C151.2,32.4,159,38.3,159.1,46.7z"/>
<path id="path297" class="st122" d="M158.4,46.7c0.1,6-11,14.1-25.8,14.1c-14.9,0-25.7-4.7-25.7-12.9c0-8.2,12.1-14.6,26.9-14.9
	C150.6,32.6,158.3,38.4,158.4,46.7z"/>
<path id="path299" class="st123" d="M157.8,46.7c0.1,5.9-10.8,13.8-25.3,13.8c-14.6,0-25.2-4.6-25.2-12.7c0-8.1,11.8-14.3,26.4-14.6
	C150,32.9,157.7,38.6,157.8,46.7z"/>
<path id="path301" class="st124" d="M157.1,46.6c0.1,5.8-10.6,13.6-24.8,13.6c-14.2,0-24.7-4.6-24.7-12.5c0-7.9,11.6-14,25.8-14.3
	C149.4,33.1,157,38.7,157.1,46.6z"/>
<path id="path303" class="st125" d="M156.5,46.6c0.1,5.8-10.4,13.3-24.3,13.3c-13.9,0-24.2-4.5-24.2-12.2c0-7.7,11.3-13.7,25.2-14
	C148.8,33.3,156.4,38.8,156.5,46.6z"/>
<path id="path305" class="st126" d="M155.8,46.5c0.1,5.7-10.2,13-23.8,13c-13.6,0-23.6-4.5-23.6-12c0-7.5,11-13.4,24.7-13.6
	C148.2,33.5,155.7,38.9,155.8,46.5z"/>
<path id="path307" class="st127" d="M155.1,46.5c0.1,5.6-10,12.7-23.3,12.7c-13.3,0-23.1-4.4-23.1-11.8s10.8-13.1,24.1-13.3
	C147.6,33.8,155.1,39.1,155.1,46.5z"/>
<path id="path309" class="st128" d="M154.5,46.4c0.1,5.6-9.8,12.5-22.7,12.5c-13,0-22.6-4.4-22.6-11.6c0-7.2,10.5-12.8,23.5-13
	C146.9,34,154.4,39.2,154.5,46.4z"/>
<path id="path311" class="st129" d="M153.8,46.4c0.1,5.5-9.6,12.2-22.2,12.2c-12.7,0-22.1-4.3-22.1-11.4c0-7,10.3-12.5,22.9-12.7
	C146.3,34.2,153.8,39.3,153.8,46.4z"/>
<path id="path313" class="st130" d="M153.2,46.3c0,5.4-9.3,11.9-21.7,11.9c-12.4,0-21.6-4.3-21.6-11.1c0-6.8,10-12.2,22.4-12.4
	C145.7,34.5,153.1,39.5,153.2,46.3z"/>
<path id="path315" class="st131" d="M152.5,46.3c0,5.4-9.1,11.6-21.2,11.6c-12,0-21.1-4.3-21.1-10.9c0-6.7,9.8-11.9,21.8-12.1
	C145.1,34.7,152.5,39.6,152.5,46.3z"/>
<path id="path317" class="st132" d="M151.8,46.2c0,5.3-8.9,11.3-20.7,11.3c-11.7,0-20.6-4.2-20.6-10.7c0-6.5,9.5-11.6,21.2-11.8
	C144.5,34.9,151.8,39.7,151.8,46.2z"/>
<path id="path319" class="st132" d="M151.2,46.2c0,5.2-8.7,11.1-20.1,11.1c-11.4,0-20.1-4.2-20.1-10.5c0-6.3,9.3-11.3,20.7-11.4
	C143.9,35.1,151.1,39.8,151.2,46.2z"/>
<path id="path321" class="st133" d="M150.5,46.1c0,5.2-8.5,10.8-19.6,10.8c-11.1,0-19.6-4.1-19.6-10.3c0-6.1,9-11,20.1-11.1
	C143.3,35.4,150.5,40,150.5,46.1z"/>
<path id="path323" class="st134" d="M149.9,46.1c0,5.1-8.3,10.5-19.1,10.5c-10.8,0-19-4.1-19-10c0-6,8.7-10.7,19.5-10.8
	C142.7,35.6,149.8,40.1,149.9,46.1z"/>
<path id="path325" class="st135" d="M149.2,46c0,5-8.1,10.2-18.6,10.2c-10.5,0-18.5-4-18.5-9.8c0-5.8,8.5-10.4,18.9-10.5
	C142.1,35.8,149.2,40.2,149.2,46z"/>
<path id="path327" class="st136" d="M148.5,46c0,5-7.9,9.9-18.1,9.9c-10.1,0-18-4-18-9.6s8.2-10.1,18.4-10.2
	C141.5,36.1,148.5,40.4,148.5,46z"/>
<path id="path329" class="st137" d="M147.9,45.9c0,4.9-7.7,9.7-17.6,9.7c-9.8,0-17.5-3.9-17.5-9.4c0-5.4,8-9.8,17.8-9.9
	C140.9,36.3,147.9,40.5,147.9,45.9z"/>
<path id="path331" class="st138" d="M147.2,45.9c0,4.8-7.5,9.4-17,9.4c-9.5,0-17-3.9-17-9.2c0-5.3,7.7-9.5,17.2-9.5
	C140.3,36.5,147.2,40.6,147.2,45.9z"/>
<path id="path333" class="st139" d="M146.6,45.8c0,4.8-7.3,9.1-16.5,9.1c-9.2,0-16.5-3.8-16.5-8.9c0-5.1,7.5-9.2,16.7-9.2
	C139.7,36.7,146.5,40.7,146.6,45.8z"/>
<path id="path335" class="st140" d="M145.9,45.8c0,4.7-7.1,8.8-16,8.8c-8.9,0-16-3.8-16-8.7c0-4.9,7.2-8.9,16.1-8.9
	C139.1,37,145.9,40.9,145.9,45.8z"/>
<path id="path337" class="st141" d="M145.2,45.7c0,4.6-6.9,8.6-15.5,8.6c-8.6,0-15.5-3.7-15.5-8.5s7-8.6,15.5-8.6
	C138.5,37.2,145.2,41,145.2,45.7z"/>
<path id="path339" class="st142" d="M144.6,45.7c0,4.6-6.7,8.3-15,8.3c-8.3,0-15-3.7-15-8.3c0-4.6,6.7-8.3,15-8.3
	C137.9,37.4,144.6,41.1,144.6,45.7z"/>
<linearGradient id="path364_1_" gradientUnits="userSpaceOnUse" x1="2206.1213" y1="-2965.3887" x2="2138.886" y2="-2514.7905" gradientTransform="matrix(0.3644 0 0 -0.3644 -612.2844 -942.3812)">
	<stop  offset="5.500000e-03" style="stop-color:#000000"/>
	<stop  offset="6.300000e-03" style="stop-color:#040404"/>
	<stop  offset="5.240000e-02" style="stop-color:#444550"/>
	<stop  offset="9.930000e-02" style="stop-color:#4C536A"/>
	<stop  offset="0.1465" style="stop-color:#455378"/>
	<stop  offset="0.1938" style="stop-color:#344F80"/>
	<stop  offset="0.2411" style="stop-color:#1D4B84"/>
	<stop  offset="0.2886" style="stop-color:#004787"/>
	<stop  offset="0.3363" style="stop-color:#004588"/>
	<stop  offset="0.3846" style="stop-color:#004489"/>
	<stop  offset="1" style="stop-color:#004489"/>
</linearGradient>
<path id="path364" class="st143" d="M212,11.1c18.2,9.5,29.5,22.6,29.5,37.1c0,28.8-44.6,52.2-99.7,52.2c-32,0-60.4-7.9-78.7-20.1
	c8.8,29.6,58.4,52.3,118.2,52.3c66,0,119.6-27.7,119.6-61.8C301,42.2,263.2,18.1,212,11.1z"/>
<linearGradient id="path368_1_" gradientUnits="userSpaceOnUse" x1="1680.2582" y1="-2586.3555" x2="1680.2582" y2="-2586.3555" gradientTransform="matrix(0.3644 0 0 -0.3644 -612.2844 -942.3812)">
	<stop  offset="5.500000e-03" style="stop-color:#000000"/>
	<stop  offset="6.300000e-03" style="stop-color:#040404"/>
	<stop  offset="5.240000e-02" style="stop-color:#444550"/>
	<stop  offset="9.930000e-02" style="stop-color:#4C536A"/>
	<stop  offset="0.1465" style="stop-color:#455378"/>
	<stop  offset="0.1938" style="stop-color:#344F80"/>
	<stop  offset="0.2411" style="stop-color:#1D4B84"/>
	<stop  offset="0.2886" style="stop-color:#004787"/>
	<stop  offset="0.3363" style="stop-color:#004588"/>
	<stop  offset="0.3846" style="stop-color:#004489"/>
	<stop  offset="1" style="stop-color:#004489"/>
</linearGradient>
<path id="path368" class="st144" d="M0,0.1"/>
<path id="path372" class="st145" d="M310.7,70.7c0,38.6-58,69.8-129.5,69.8c-71.5,0-129.5-31.3-129.5-69.8s58-69.8,129.5-69.8
	C252.7,0.9,310.7,32.2,310.7,70.7z"/>
<path id="path374" class="st146" d="M300,70.5c0,33.9-53.2,61.4-118.8,61.4c-65.6,0-118.8-27.5-118.8-61.4
	c0-33.9,53.2-61.4,118.8-61.4C246.9,9.1,300,36.6,300,70.5z"/>
<path id="path376" class="st147" d="M310.7,70.7c0,38.6-58,69.8-129.5,69.8c-71.5,0-129.5-31.3-129.5-69.8s58-69.8,129.5-69.8
	C252.7,0.9,310.7,32.2,310.7,70.7z"/>
<path id="path378" class="st147" d="M308.5,70c0,37.3-57,67.5-127.2,67.5C111,137.5,54,107.3,54,70S111,2.5,181.3,2.5
	C251.5,2.5,308.5,32.8,308.5,70z"/>
<linearGradient id="path411_1_" gradientUnits="userSpaceOnUse" x1="1821.8234" y1="-2780.199" x2="2532.8347" y2="-2780.199" gradientTransform="matrix(0.3644 0 0 -0.3644 -612.2844 -942.3812)">
	<stop  offset="5.500000e-03" style="stop-color:#808080"/>
	<stop  offset="0.1538" style="stop-color:#FFFFFF"/>
	<stop  offset="0.1942" style="stop-color:#F4F4F4"/>
	<stop  offset="0.3001" style="stop-color:#DDDDDD"/>
	<stop  offset="0.3991" style="stop-color:#CECECE"/>
	<stop  offset="0.4835" style="stop-color:#C9C9C9"/>
	<stop  offset="0.4885" style="stop-color:#C0C0C0"/>
	<stop  offset="0.5136" style="stop-color:#979797"/>
	<stop  offset="0.5394" style="stop-color:#757575"/>
	<stop  offset="0.5654" style="stop-color:#5A5A5A"/>
	<stop  offset="0.5919" style="stop-color:#474747"/>
	<stop  offset="0.6192" style="stop-color:#3C3C3C"/>
	<stop  offset="0.6484" style="stop-color:#383838"/>
	<stop  offset="0.8352" style="stop-color:#383838"/>
	<stop  offset="1" style="stop-color:#7A7A7A"/>
</linearGradient>
<path id="path411" class="st148" d="M181.1,0.9c-71.5,0-129.5,31.3-129.5,69.8s58,69.8,129.5,69.8c71.5,0,129.5-31.3,129.5-69.8
	S252.7,0.9,181.1,0.9z M181.3,137.5C111,137.5,54,107.3,54,70S111,2.5,181.3,2.5c70.3,0,127.2,30.2,127.2,67.5
	C308.5,107.3,251.5,137.5,181.3,137.5z"/>
<path id="path413" class="st147" d="M300,70.5c0,33.9-53.2,61.4-118.8,61.4c-65.6,0-118.8-27.5-118.8-61.4
	c0-33.9,53.2-61.4,118.8-61.4C246.9,9.1,300,36.6,300,70.5z"/>
<linearGradient id="path422_1_" gradientUnits="userSpaceOnUse" x1="1821.8234" y1="-2780.199" x2="2532.8347" y2="-2780.199" gradientTransform="matrix(0.3644 0 0 -0.3644 -612.2844 -942.3812)">
	<stop  offset="5.500000e-03" style="stop-color:#D1D1D1"/>
	<stop  offset="0.456" style="stop-color:#4D4D4D"/>
	<stop  offset="1" style="stop-color:#A6A6A6"/>
</linearGradient>
<path id="path422" class="st149" d="M181.1,0.9c-71.5,0-129.5,31.3-129.5,69.8s58,69.8,129.5,69.8c71.5,0,129.5-31.3,129.5-69.8
	S252.7,0.9,181.1,0.9z M181.3,131.8c-65.6,0-118.8-27.5-118.8-61.4c0-33.9,53.2-61.4,118.8-61.4C246.9,9.1,300,36.6,300,70.5
	C300,104.3,246.9,131.8,181.3,131.8z"/>
<linearGradient id="path433_1_" gradientUnits="userSpaceOnUse" x1="2027.3994" y1="-2625.1013" x2="2318.1992" y2="-2926.0063" gradientTransform="matrix(0.3644 0 0 -0.3644 -612.2844 -942.3812)">
	<stop  offset="5.500000e-03" style="stop-color:#E6E6E6"/>
	<stop  offset="0.456" style="stop-color:#595959"/>
	<stop  offset="0.8352" style="stop-color:#808080"/>
	<stop  offset="1" style="stop-color:#D9D9D9"/>
</linearGradient>
<path id="path433" class="st150" d="M180.7,3.8c-69.3,0-125.5,29.8-125.5,66.5c0,36.8,56.2,66.5,125.5,66.5
	c69.3,0,125.5-29.8,125.5-66.5C306.2,33.6,250,3.8,180.7,3.8z M181.3,131.8c-65.6,0-118.8-27.5-118.8-61.4
	c0-33.9,53.2-61.4,118.8-61.4C246.9,9.1,300,36.6,300,70.5C300,104.3,246.9,131.8,181.3,131.8z"/>
<linearGradient id="path448_1_" gradientUnits="userSpaceOnUse" x1="2045.2318" y1="-2702.2678" x2="2425.4932" y2="-2923.8381" gradientTransform="matrix(0.3644 0 0 -0.3644 -612.2844 -942.3812)">
	<stop  offset="5.500000e-03" style="stop-color:#F2F2F2"/>
	<stop  offset="0.3462" style="stop-color:#1A1A1A"/>
	<stop  offset="0.5879" style="stop-color:#3D3D3D"/>
	<stop  offset="0.6956" style="stop-color:#484848"/>
	<stop  offset="0.7692" style="stop-color:#525252"/>
	<stop  offset="1" style="stop-color:#BDBDBD"/>
</linearGradient>
<path id="path448" class="st151" d="M181.3,8.1C114.6,8.1,60.6,36,60.6,70.5s54,62.4,120.7,62.4c66.7,0,120.7-27.9,120.7-62.4
	C302,36,247.9,8.1,181.3,8.1z M181.3,131.8c-65.6,0-118.8-27.5-118.8-61.4c0-33.9,53.2-61.4,118.8-61.4C246.9,9.1,300,36.6,300,70.5
	C300,104.3,246.9,131.8,181.3,131.8z"/>
<path id="path450" class="st145" d="M159.8,103.5c0,0-12.5,1-12.4,2.3c0.1,1.4,10.3,2.4,12,2.6c1.7,0.2,8.4,1,10.3,1.6
	c1.9,0.7,3.2,1.2,4,3.3c0.7,2.1,2.6,8.4,2.6,8.4s0.9,3.5,1.6,3.5c0.8,0,1.6-3.7,1.6-3.7s1.8-7.8,3.2-9.3c1.4-1.4,1.6-2,7.6-2.9
	c6.1-1,12.1-2,16.6-2c4.6,0,5.5,0.1,8.2,0.4c2.8,0.3,8.8,1.1,11.2,1.8c2.4,0.7,3.2,2.5,3.8,4c0.6,1.6,2,5.7,2,5.7s0.3,1.7,1.2,1.7
	c0.8,0,1.2-1.8,1.2-1.8s2.2-7,3.4-8c1.2-1.1,2.1-2.1,8.2-2.9c6.1-0.8,9.7-1.5,11.8-1.6c2.1-0.1,3.6-0.4,3.6-1.1c0-0.7-0.8-1-3.8-1.4
	c-3-0.4-11.9-1.4-16.6-2.4c-4.7-1-5-4.8-5.7-6.6c-0.7-1.8-1.2-4.8-2.2-4.8c-1.1,0-1.4,2-1.6,2.6c-0.2,0.6-1.3,4.5-2.1,5.8
	c-0.8,1.3-1.4,2.7-4.6,3.3c-3.2,0.6-9.2,1.9-14.9,2c-5.7,0.1-8.9-0.3-13.3-0.8c-4.4-0.5-8.5-0.7-11.6-2.1c-3.1-1.4-4.6-5.9-5.5-8.6
	c-0.8-2.7-1.4-4-1.8-4c-0.5,0-1.4,2-1.9,3.8c-0.5,1.8-2,7-4.1,8.3C169.7,102.1,166.1,102.8,159.8,103.5z"/>
<linearGradient id="path467_1_" gradientUnits="userSpaceOnUse" x1="2233.0532" y1="-2898.0913" x2="2323.9924" y2="-2898.0913" gradientTransform="matrix(0.3644 0 0 -0.3644 -612.2844 -942.3812)">
	<stop  offset="8.239999e-02" style="stop-color:#999999"/>
	<stop  offset="0.1746" style="stop-color:#7C7C7C"/>
	<stop  offset="0.3242" style="stop-color:#525252"/>
	<stop  offset="0.6374" style="stop-color:#4A4A4A"/>
	<stop  offset="0.7857" style="stop-color:#B0B0B0"/>
	<stop  offset="0.8901" style="stop-color:#7A7A7A"/>
	<stop  offset="1" style="stop-color:#9E9E9E"/>
</linearGradient>
<path id="path467" class="st152" d="M234.4,115.6c-0.1,0.6-0.4,1.7-1,1.7s-0.8-0.7-1.1-1.6c-0.3-0.9-0.5-3.2-1.6-5.7
	c-1-2.5-5.5-2.7-8.6-3c-3.1-0.3-15.8-0.9-18.5-0.6c-0.4,0-1,0-1.8,0.1l-0.4,1.1c2-0.2,3.9-0.4,5.6-0.4c4.6,0,5.5,0.1,8.2,0.4
	c2.8,0.3,8.8,1.1,11.2,1.8c2.4,0.7,3.2,2.5,3.8,4c0.6,1.6,2,5.7,2,5.7s0.3,1.7,1.2,1.7c0.8,0,1.2-1.8,1.2-1.8L234.4,115.6z"/>
<linearGradient id="path476_1_" gradientUnits="userSpaceOnUse" x1="2366.4004" y1="-2873.1958" x2="2366.4004" y2="-2877.781" gradientTransform="matrix(0.3644 0 0 -0.3644 -612.2844 -942.3812)">
	<stop  offset="0.1374" style="stop-color:#E6E6E6"/>
	<stop  offset="0.5055" style="stop-color:#CCCCCC"/>
	<stop  offset="0.9121" style="stop-color:#E0E0E0"/>
</linearGradient>
<path id="path476" class="st153" d="M238.5,103.2c2.6,1,9,1.5,10,1.5c1,0,2.8-0.1,2.8,0.8c0,0.9-1,1-2.2,1l8.8,0.2
	c2.1-0.1,3.6-0.4,3.6-1.1c0-0.7-0.8-1-3.8-1.4c-3-0.4-11.9-1.4-16.6-2.4L238.5,103.2z"/>
<linearGradient id="path489_1_" gradientUnits="userSpaceOnUse" x1="2264.3276" y1="-2856.1335" x2="2315.7813" y2="-2852.7656" gradientTransform="matrix(0.3644 0 0 -0.3644 -612.2844 -942.3812)">
	<stop  offset="8.239999e-02" style="stop-color:#999999"/>
	<stop  offset="0.1282" style="stop-color:#A4A4A4"/>
	<stop  offset="0.3242" style="stop-color:#CFCFCF"/>
	<stop  offset="0.5604" style="stop-color:#D9D9D9"/>
	<stop  offset="0.7582" style="stop-color:#E0E0E0"/>
</linearGradient>
<path id="path489" class="st154" d="M234.4,96.5c-0.2-1.2-0.7-2.2-1.2-2.2c-0.5,0-1,1.3-1.2,2.3c-0.2,1-0.1,4.3-2.3,5.7
	c-2.2,1.4-4.6,2-12.1,2.4c-7.6,0.4-13.9,0.2-16.2,0.1l-0.1-0.9c2.6,0.3,5.2,0.4,8.8,0.3c5.7-0.1,11.7-1.4,14.9-2
	c3.2-0.6,3.8-2,4.6-3.3c0.8-1.3,1.9-5.2,2.1-5.8c0.2-0.6,0.5-2.6,1.6-2.6c1.1,0,1.6,2.9,2.2,4.8L234.4,96.5z"/>
<linearGradient id="path502_1_" gradientUnits="userSpaceOnUse" x1="2200.4509" y1="-2852.4163" x2="2228.0276" y2="-2879.5718" gradientTransform="matrix(0.3644 0 0 -0.3644 -612.2844 -942.3812)">
	<stop  offset="8.239999e-02" style="stop-color:#EDEDED"/>
	<stop  offset="0.2054" style="stop-color:#BCBCBC"/>
	<stop  offset="0.3242" style="stop-color:#919191"/>
	<stop  offset="0.5604" style="stop-color:#8C8C8C"/>
	<stop  offset="0.7582" style="stop-color:#999999"/>
</linearGradient>
<path id="path502" class="st155" d="M184.1,100.7c0.3,0.2,0.6,0.4,1,0.6c3.1,1.4,7.2,1.6,11.6,2.1c4.4,0.5,7.6,1,13.3,0.8l0,0.7
	c-4.1,0.1-7.3,0-8.8-0.1c-2.3-0.1-14.4-0.4-18.2-1.7c-0.4-0.1-0.7-0.3-1-0.5L184.1,100.7z"/>
<linearGradient id="path515_1_" gradientUnits="userSpaceOnUse" x1="2174.177" y1="-2912.1882" x2="2228.9131" y2="-2867.2766" gradientTransform="matrix(0.3644 0 0 -0.3644 -612.2844 -942.3812)">
	<stop  offset="8.239999e-02" style="stop-color:#949494"/>
	<stop  offset="0.1639" style="stop-color:#7C7C7C"/>
	<stop  offset="0.3242" style="stop-color:#525252"/>
	<stop  offset="0.5604" style="stop-color:#4A4A4A"/>
	<stop  offset="0.7582" style="stop-color:#999999"/>
</linearGradient>
<path id="path515" class="st156" d="M203.6,106.5c-2.3,0.1-14.8,1.2-18.1,1.4c-3.3,0.2-4.5,2.3-5,3.3c-0.5,1-1.8,7.6-2,8.1
	c-0.1,0.5-0.3,1.6-0.7,1.6v4.4c0.8,0,1.6-3.7,1.6-3.7s1.8-7.8,3.2-9.3c1.4-1.4,1.6-2,7.6-2.9c4.7-0.7,9.4-1.6,13.3-1.9L203.6,106.5z
	"/>
<linearGradient id="path530_1_" gradientUnits="userSpaceOnUse" x1="2152.1763" y1="-2895.1582" x2="2178.3521" y2="-2940.562" gradientTransform="matrix(0.3644 0 0 -0.3644 -612.2844 -942.3812)">
	<stop  offset="0" style="stop-color:#D9D9D9"/>
	<stop  offset="0.2033" style="stop-color:#6B6B6B"/>
	<stop  offset="0.206" style="stop-color:#6C6C6C"/>
	<stop  offset="0.4451" style="stop-color:#969696"/>
	<stop  offset="0.5604" style="stop-color:#969696"/>
	<stop  offset="0.7582" style="stop-color:#A8A8A8"/>
</linearGradient>
<path id="path530" class="st157" d="M166.1,107.4c0,0,4.1,0.2,5.7,1c1.6,0.8,3.1,1.6,3.5,3.2c0.4,1.6,1.8,7.5,1.9,8
	c0.1,0.5,0.3,1.2,0.7,1.2s0.5-1.1,0.7-1.6l1,2.3c0,0-0.9,3.7-1.6,3.7c-0.8,0-1.6-3.5-1.6-3.5s-1.8-6.3-2.6-8.4c-0.7-2.1-2-2.7-4-3.3
	c-0.7-0.3-2.2-0.5-3.7-0.8L166.1,107.4z"/>
<linearGradient id="path543_1_" gradientUnits="userSpaceOnUse" x1="2165.7952" y1="-2922.0237" x2="2171.3645" y2="-2922.0237" gradientTransform="matrix(0.3644 0 0 -0.3644 -612.2844 -942.3812)">
	<stop  offset="0.2143" style="stop-color:#969696"/>
	<stop  offset="0.3626" style="stop-color:#ADADAD"/>
	<stop  offset="0.5055" style="stop-color:#C9C9C9"/>
	<stop  offset="0.7418" style="stop-color:#A3A3A3"/>
	<stop  offset="0.8846" style="stop-color:#9E9E9E"/>
</linearGradient>
<path id="path543" class="st158" d="M177.2,119.6c0.1,0.5,0.3,1.2,0.7,1.2c0.3,0,0.4-0.6,0.6-1.2l0.2,4.6c-0.2,0.5-0.5,0.9-0.7,0.9
	c-0.2,0-0.5-0.4-0.7-0.9L177.2,119.6z"/>
<linearGradient id="path564_1_" gradientUnits="userSpaceOnUse" x1="2111.4871" y1="-2876.3164" x2="2145.1716" y2="-2895.9656" gradientTransform="matrix(0.3644 0 0 -0.3644 -612.2844 -942.3812)">
	<stop  offset="0" style="stop-color:#A8A8A8"/>
	<stop  offset="8.790000e-02" style="stop-color:#6B6B6B"/>
	<stop  offset="0.3681" style="stop-color:#5E5E5E"/>
	<stop  offset="0.4626" style="stop-color:#626262"/>
	<stop  offset="0.5417" style="stop-color:#6C6C6C"/>
	<stop  offset="0.6149" style="stop-color:#7D7D7D"/>
	<stop  offset="0.6846" style="stop-color:#969696"/>
	<stop  offset="0.6868" style="stop-color:#969696"/>
	<stop  offset="0.8462" style="stop-color:#D9D9D9"/>
</linearGradient>
<path id="path564" class="st159" d="M169.7,110c-1.9-0.7-8.6-1.4-10.3-1.6c-1.7-0.2-11.9-1.2-12-2.6c-0.1-1.4,12.4-2.3,12.4-2.3
	l0.3,1.3c-2,0.3-3.8,0.2-3.8,0.9c0,0.7,1.3,1.2,3.8,1.3c2.5,0.1,5.9,0.5,5.9,0.5s4.1,0.2,5.7,1L169.7,110z"/>
<linearGradient id="path571_1_" gradientUnits="userSpaceOnUse" x1="2084.8484" y1="-2852.8894" x2="2173.3357" y2="-2852.8894" gradientTransform="matrix(0.3644 0 0 -0.3644 -612.2844 -942.3812)">
	<stop  offset="0" style="stop-color:#A8A8A8"/>
	<stop  offset="1" style="stop-color:#FFFFFF"/>
</linearGradient>
<path id="path571" class="st160" d="M147.4,105.8c-0.1-1.4,12.4-2.3,12.4-2.3c6.3-0.6,9.9-1.4,12-2.7c2.1-1.3,3.5-6.5,4.1-8.3
	c0.5-1.8,1.4-3.8,1.9-3.8c0.5,0,1,1.3,1.8,4l-0.7,2.9c-0.4-2.5-0.6-3.1-1.2-3.1c-0.6,0-1,1.8-1.4,3.5c-0.3,1.6-0.8,6.2-4.1,7.2
	c-3.5,1.1-5.5,1.4-12.1,1.6c-2,0.3-3.8,0.2-3.8,0.9L147.4,105.8z"/>
<linearGradient id="path604_1_" gradientUnits="userSpaceOnUse" x1="2168.4648" y1="-2838.1875" x2="2187.6917" y2="-2874.3955" gradientTransform="matrix(0.3644 0 0 -0.3644 -612.2844 -942.3812)">
	<stop  offset="0" style="stop-color:#C7C7C7"/>
	<stop  offset="8.239999e-02" style="stop-color:#BDBDBD"/>
	<stop  offset="0.1429" style="stop-color:#8C8C8C"/>
	<stop  offset="0.2151" style="stop-color:#7E7E7E"/>
	<stop  offset="0.3297" style="stop-color:#6B6B6B"/>
	<stop  offset="0.3907" style="stop-color:#595959"/>
	<stop  offset="0.544" style="stop-color:#2E2E2E"/>
	<stop  offset="0.5738" style="stop-color:#323232"/>
	<stop  offset="0.6042" style="stop-color:#3E3E3E"/>
	<stop  offset="0.6351" style="stop-color:#535353"/>
	<stop  offset="0.6661" style="stop-color:#707070"/>
	<stop  offset="0.6973" style="stop-color:#959595"/>
	<stop  offset="0.7283" style="stop-color:#C1C1C1"/>
	<stop  offset="0.7473" style="stop-color:#E0E0E0"/>
	<stop  offset="0.8901" style="stop-color:#FFFFFF"/>
</linearGradient>
<path id="path604" class="st161" d="M183,103.1c-2.2-0.9-3.3-2.8-4.1-7.6c-0.4-2.5-0.6-3.1-1.2-3.1l0.1-3.8c0.5,0,1,1.3,1.8,4
	c0.8,2.7,2.4,7.2,5.5,8.6L183,103.1z"/>
<linearGradient id="path613_1_" gradientUnits="userSpaceOnUse" x1="2166.9922" y1="-2834.9534" x2="2169.5002" y2="-2834.9534" gradientTransform="matrix(0.3644 0 0 -0.3644 -612.2844 -942.3812)">
	<stop  offset="0" style="stop-color:#FFFFFF"/>
	<stop  offset="0.4505" style="stop-color:#BFBFBF"/>
	<stop  offset="0.8242" style="stop-color:#C2C2C2"/>
</linearGradient>
<path id="path613" class="st162" d="M177.4,92.7c0.1-0.1,0.2-0.2,0.4-0.2c0.2,0,0.3,0.1,0.4,0.2l0.1-3.7c-0.2-0.2-0.3-0.3-0.4-0.3
	c-0.1,0-0.3,0.2-0.5,0.4L177.4,92.7z"/>
<linearGradient id="path622_1_" gradientUnits="userSpaceOnUse" x1="2097.9734" y1="-2878.5408" x2="2098.012" y2="-2873.6355" gradientTransform="matrix(0.3644 0 0 -0.3644 -612.2844 -942.3812)">
	<stop  offset="0" style="stop-color:#A6A6A6"/>
	<stop  offset="0.4505" style="stop-color:#E6E6E6"/>
	<stop  offset="0.8242" style="stop-color:#B8B8B8"/>
</linearGradient>
<path id="path622" class="st163" d="M157.1,106.4c-0.4-0.2-0.7-0.5-0.7-0.7c0-0.3,0.2-0.4,0.7-0.5l-7.8-0.3
	c-1.1,0.3-1.9,0.6-1.9,0.9c0,0.3,0.7,0.7,1.7,1L157.1,106.4z"/>
<linearGradient id="path653_1_" gradientUnits="userSpaceOnUse" x1="2364.4417" y1="-2875.3203" x2="2346.3098" y2="-2934.0103" gradientTransform="matrix(0.3644 0 0 -0.3644 -612.2844 -942.3812)">
	<stop  offset="5.500000e-03" style="stop-color:#FFFFFF"/>
	<stop  offset="6.200000e-03" style="stop-color:#FEFEFE"/>
	<stop  offset="3.530000e-02" style="stop-color:#CBCBCB"/>
	<stop  offset="6.400000e-02" style="stop-color:#A1A1A1"/>
	<stop  offset="9.180000e-02" style="stop-color:#818181"/>
	<stop  offset="0.1185" style="stop-color:#6A6A6A"/>
	<stop  offset="0.1434" style="stop-color:#5C5C5C"/>
	<stop  offset="0.1648" style="stop-color:#575757"/>
	<stop  offset="0.2037" style="stop-color:#686868"/>
	<stop  offset="0.2809" style="stop-color:#959595"/>
	<stop  offset="0.3407" style="stop-color:#BDBDBD"/>
	<stop  offset="0.4544" style="stop-color:#A1A1A1"/>
	<stop  offset="0.511" style="stop-color:#919191"/>
	<stop  offset="0.8571" style="stop-color:#B8B8B8"/>
</linearGradient>
<path id="path653" class="st164" d="M233.4,121c0.8,0,1.2-1.8,1.2-1.8s2.2-7,3.4-8c1.2-1.1,2.1-2.1,8.2-2.9
	c6.1-0.8,9.7-1.5,11.8-1.6c2.1-0.1,3.6-0.4,3.6-1.1l-10.2-0.1c0,0.9-1,1-2.2,1c-1.2,0.1-6.7,0.5-10.3,1.2c-3.5,0.7-4.3,7.3-4.4,7.9
	c-0.1,0.6-0.4,1.7-1,1.7V121z"/>
<linearGradient id="path668_1_" gradientUnits="userSpaceOnUse" x1="2321.5276" y1="-2846.4077" x2="2350.2493" y2="-2875.7861" gradientTransform="matrix(0.3644 0 0 -0.3644 -612.2844 -942.3812)">
	<stop  offset="8.239999e-02" style="stop-color:#DEDEDE"/>
	<stop  offset="0.2443" style="stop-color:#7D7D7D"/>
	<stop  offset="0.3242" style="stop-color:#525252"/>
	<stop  offset="0.5604" style="stop-color:#737373"/>
	<stop  offset="0.6696" style="stop-color:#A0A0A0"/>
	<stop  offset="0.8242" style="stop-color:#E6E6E6"/>
</linearGradient>
<path id="path668" class="st165" d="M243.3,104.1c-1.8-0.2-3.6-0.5-4.7-1c-2.6-1-3.5-2.8-4.2-6.7c-0.2-1.2-0.7-2.2-1.2-2.2
	c-0.5,0-1,1.3-1.2,2.3l-0.3-3.5c0.2-0.6,0.5-2.6,1.6-2.6c1.1,0,1.6,2.9,2.2,4.8c0.7,1.8,1,5.6,5.7,6.6c0.9,0.2,1.9,0.4,2.9,0.6
	L243.3,104.1z"/>
<linearGradient id="path679_1_" gradientUnits="userSpaceOnUse" x1="2318.292" y1="-2841.3521" x2="2322.5962" y2="-2841.3521" gradientTransform="matrix(0.3644 0 0 -0.3644 -612.2844 -942.3812)">
	<stop  offset="0" style="stop-color:#E3E3E3"/>
	<stop  offset="0.4505" style="stop-color:#BABABA"/>
	<stop  offset="0.7637" style="stop-color:#DADADA"/>
	<stop  offset="0.8242" style="stop-color:#E0E0E0"/>
</linearGradient>
<path id="path679" class="st166" d="M232.2,91.1c0.2-0.4,0.5-0.7,0.9-0.7c0.3,0,0.6,0.2,0.8,0.6l0.2,4.5c0,0,0-0.1,0-0.1
	c-0.2-0.6-0.6-1.1-0.9-1.1c-0.4,0-0.7,0.6-0.9,1.3L232.2,91.1z"/>
<linearGradient id="path700_1_" gradientUnits="userSpaceOnUse" x1="2382.7236" y1="-2874.2729" x2="2382.7236" y2="-2876.9373" gradientTransform="matrix(0.3644 0 0 -0.3644 -612.2844 -942.3812)">
	<stop  offset="0" style="stop-color:#E6E6E6"/>
	<stop  offset="5.390000e-02" style="stop-color:#DDDDDD"/>
	<stop  offset="0.2029" style="stop-color:#CBCBCB"/>
	<stop  offset="0.3603" style="stop-color:#C0C0C0"/>
	<stop  offset="0.5385" style="stop-color:#BDBDBD"/>
	<stop  offset="0.6449" style="stop-color:#C2C2C2"/>
	<stop  offset="0.7716" style="stop-color:#D0D0D0"/>
	<stop  offset="0.9081" style="stop-color:#E8E8E8"/>
	<stop  offset="1" style="stop-color:#FCFCFC"/>
</linearGradient>
<path id="path700" class="st167" d="M260,106.4c1-0.2,1.5-0.4,1.5-0.9c0-0.5-0.4-0.7-1.5-1l-9.6,0.1c0.5,0.1,0.9,0.3,0.9,0.8
	c0,0.3-0.1,0.4-0.2,0.6L260,106.4z"/>
<linearGradient id="path715_1_" gradientUnits="userSpaceOnUse" x1="2317.6392" y1="-2910.7126" x2="2325.0242" y2="-2910.7126" gradientTransform="matrix(0.3644 0 0 -0.3644 -612.2844 -942.3812)">
	<stop  offset="1.650000e-02" style="stop-color:#878787"/>
	<stop  offset="6.420000e-02" style="stop-color:#8A8A8A"/>
	<stop  offset="9.340000e-02" style="stop-color:#919191"/>
	<stop  offset="0.4286" style="stop-color:#E0E0E0"/>
	<stop  offset="0.7692" style="stop-color:#9E9E9E"/>
	<stop  offset="1" style="stop-color:#ADADAD"/>
</linearGradient>
<path id="path715" class="st168" d="M234.4,115.6c-0.1,0.6-0.4,1.7-1,1.7s-0.8-0.7-1.1-1.6l-0.1,3.5c0,0,0.3,1.7,1.2,1.7
	c1,0,1.5-3,1.5-3L234.4,115.6z"/>
<path id="path717" class="st145" d="M245.1,82c-4.6,0-10.6,1.1-16.6,2.1c-6.1,1-6.3,1.5-7.6,3c-1.4,1.5-3.2,9.4-3.2,9.4
	s-0.9,3.8-1.6,3.8c-0.8,0-1.6-3.5-1.6-3.5s-1.8-6.4-2.6-8.5c-0.8-2.2-2-2.7-4-3.4c-1.9-0.7-8.6-1.5-10.3-1.7
	c-1.7-0.2-11.9-1.3-12-2.6c-0.1-1.4,12.4-2.4,12.4-2.4c6.3-0.6,9.9-1.4,12-2.7c2.1-1.3,3.5-6.7,4.1-8.5c0.5-1.8,1.4-3.9,1.9-3.9
	c0.5,0,1,1.3,1.8,4.1c0.8,2.8,2.4,7.4,5.5,8.8c3.1,1.4,7.2,1.6,11.6,2.2c0,0,5.3,1,10.9,0.9c5.6-0.1,9.1-1.1,11.3-1.4
	c2.2-0.3,6.3-1,7.6-4c1.3-3,2.6-7.4,3.6-7.4c0.9-0.1,2.4,4.8,2.4,4.8s1.1,4.7,4.8,5.5c3.7,0.8,9.5,2.2,12.5,2.6c3,0.4,4,0.7,4,1.5
	c0,0.8-4,1.2-4,1.2s-10.8,1.2-13,2.6c-2.2,1.4-3.5,2.3-5.1,9.7c-0.6,1.9-0.8,2.8-1.4,2.8c-0.6,0-1.6-3.1-2.9-7.3
	c-1.2-4.2-2.3-5.4-8.3-6.3C250.9,82.2,248.4,82,245.1,82z"/>
<linearGradient id="path730_1_" gradientUnits="userSpaceOnUse" x1="2298.1113" y1="-2788.561" x2="2317.7585" y2="-2807.9082" gradientTransform="matrix(0.3644 0 0 -0.3644 -612.2844 -942.3812)">
	<stop  offset="8.239999e-02" style="stop-color:#EDEDED"/>
	<stop  offset="0.2054" style="stop-color:#BCBCBC"/>
	<stop  offset="0.3242" style="stop-color:#919191"/>
	<stop  offset="0.5604" style="stop-color:#8C8C8C"/>
	<stop  offset="0.7582" style="stop-color:#999999"/>
</linearGradient>
<path id="path730" class="st169" d="M239.5,79.5c-2.3-0.1-14.4-0.4-18.3-1.7c-0.4-0.2-0.7-0.3-1-0.6l2.1-1.9c0.3,0.2,0.6,0.4,1,0.6
	c3.1,1.4,7.2,1.6,11.6,2.1"/>
<linearGradient id="path743_1_" gradientUnits="userSpaceOnUse" x1="2278.6914" y1="-2843.2444" x2="2333.9009" y2="-2797.9446" gradientTransform="matrix(0.3644 0 0 -0.3644 -612.2844 -942.3812)">
	<stop  offset="8.239999e-02" style="stop-color:#949494"/>
	<stop  offset="0.1639" style="stop-color:#7C7C7C"/>
	<stop  offset="0.3242" style="stop-color:#525252"/>
	<stop  offset="0.5604" style="stop-color:#4A4A4A"/>
	<stop  offset="0.7582" style="stop-color:#999999"/>
</linearGradient>
<path id="path743" class="st170" d="M241.9,81.2c-2.3,0.1-14.9,1.2-18.2,1.4c-3.4,0.2-4.5,2.4-5,3.3c-0.5,1-1.8,7.7-2,8.2
	c-0.1,0.6-0.3,1.7-0.7,1.7v4.4c0.8,0,1.6-3.7,1.6-3.7s1.8-8,3.2-9.4c1.4-1.5,1.6-2,7.7-3c4.7-0.8,9.4-1.6,13.4-1.9L241.9,81.2z"/>
<linearGradient id="path758_1_" gradientUnits="userSpaceOnUse" x1="2256.8347" y1="-2826.1279" x2="2283.3372" y2="-2872.0986" gradientTransform="matrix(0.3644 0 0 -0.3644 -612.2844 -942.3812)">
	<stop  offset="0" style="stop-color:#D9D9D9"/>
	<stop  offset="0.2033" style="stop-color:#6B6B6B"/>
	<stop  offset="0.206" style="stop-color:#6C6C6C"/>
	<stop  offset="0.4451" style="stop-color:#969696"/>
	<stop  offset="0.5604" style="stop-color:#969696"/>
	<stop  offset="0.7582" style="stop-color:#A8A8A8"/>
</linearGradient>
<path id="path758" class="st171" d="M204.2,82.2c0,0,4.1,0.2,5.7,1c1.7,0.8,3.1,1.6,3.5,3.3c0.4,1.7,1.8,7.6,1.9,8.2
	c0.1,0.6,0.3,1.2,0.7,1.2c0.3,0,0.5-1.1,0.7-1.7l1,2.4c0,0-0.9,3.7-1.6,3.7c-0.8,0-1.6-3.5-1.6-3.5s-1.9-6.4-2.6-8.5
	c-0.8-2.1-2.1-2.7-4-3.4c-0.7-0.3-2.2-0.5-3.7-0.8L204.2,82.2z"/>
<linearGradient id="path771_1_" gradientUnits="userSpaceOnUse" x1="2270.4807" y1="-2853.4124" x2="2276.085" y2="-2853.4124" gradientTransform="matrix(0.3644 0 0 -0.3644 -612.2844 -942.3812)">
	<stop  offset="0.2143" style="stop-color:#969696"/>
	<stop  offset="0.3626" style="stop-color:#ADADAD"/>
	<stop  offset="0.5055" style="stop-color:#C9C9C9"/>
	<stop  offset="0.7418" style="stop-color:#A3A3A3"/>
	<stop  offset="0.8846" style="stop-color:#9E9E9E"/>
</linearGradient>
<path id="path771" class="st172" d="M215.3,94.6c0.1,0.6,0.3,1.2,0.7,1.2c0.3,0,0.4-0.6,0.6-1.2l0.2,4.7c-0.2,0.5-0.5,0.9-0.8,0.9
	c-0.2,0-0.5-0.4-0.8-0.9L215.3,94.6z"/>
<linearGradient id="path792_1_" gradientUnits="userSpaceOnUse" x1="2215.907" y1="-2807.0339" x2="2249.7603" y2="-2826.7813" gradientTransform="matrix(0.3644 0 0 -0.3644 -612.2844 -942.3812)">
	<stop  offset="0" style="stop-color:#A8A8A8"/>
	<stop  offset="8.790000e-02" style="stop-color:#6B6B6B"/>
	<stop  offset="0.3681" style="stop-color:#5E5E5E"/>
	<stop  offset="0.4626" style="stop-color:#626262"/>
	<stop  offset="0.5417" style="stop-color:#6C6C6C"/>
	<stop  offset="0.6149" style="stop-color:#7D7D7D"/>
	<stop  offset="0.6846" style="stop-color:#969696"/>
	<stop  offset="0.6868" style="stop-color:#969696"/>
	<stop  offset="0.8462" style="stop-color:#D9D9D9"/>
</linearGradient>
<path id="path792" class="st173" d="M207.8,84.8c-1.9-0.7-8.6-1.5-10.3-1.7c-1.7-0.2-12-1.2-12.1-2.6c-0.1-1.4,12.5-2.4,12.5-2.4
	l0.3,1.3c-2.1,0.3-3.8,0.2-3.8,0.9c0,0.7,1.3,1.2,3.8,1.3c2.5,0.1,5.9,0.5,5.9,0.5s4.1,0.2,5.7,1L207.8,84.8z"/>
<linearGradient id="path799_1_" gradientUnits="userSpaceOnUse" x1="2189.1672" y1="-2783.1924" x2="2278.0708" y2="-2783.1924" gradientTransform="matrix(0.3644 0 0 -0.3644 -612.2844 -942.3812)">
	<stop  offset="0" style="stop-color:#A8A8A8"/>
	<stop  offset="1" style="stop-color:#FFFFFF"/>
</linearGradient>
<path id="path799" class="st174" d="M185.4,80.5c-0.1-1.4,12.5-2.4,12.5-2.4c6.4-0.6,9.9-1.4,12.1-2.7c2.1-1.3,3.6-6.6,4.1-8.5
	c0.5-1.8,1.4-3.9,1.9-3.9c0.5,0,1,1.3,1.8,4.1l-0.7,2.9c-0.4-2.5-0.6-3.1-1.2-3.1c-0.6,0-1,1.9-1.4,3.5c-0.3,1.7-0.9,6.3-4.1,7.3
	c-3.6,1.1-5.5,1.5-12.2,1.7c-2.1,0.3-3.8,0.2-3.8,0.9L185.4,80.5z"/>
<linearGradient id="path832_1_" gradientUnits="userSpaceOnUse" x1="2273.0273" y1="-2768.3135" x2="2292.5225" y2="-2805.0269" gradientTransform="matrix(0.3644 0 0 -0.3644 -612.2844 -942.3812)">
	<stop  offset="0" style="stop-color:#C7C7C7"/>
	<stop  offset="8.239999e-02" style="stop-color:#BDBDBD"/>
	<stop  offset="0.1429" style="stop-color:#8C8C8C"/>
	<stop  offset="0.2151" style="stop-color:#7E7E7E"/>
	<stop  offset="0.3297" style="stop-color:#6B6B6B"/>
	<stop  offset="0.3907" style="stop-color:#595959"/>
	<stop  offset="0.544" style="stop-color:#2E2E2E"/>
	<stop  offset="0.5738" style="stop-color:#323232"/>
	<stop  offset="0.6042" style="stop-color:#3E3E3E"/>
	<stop  offset="0.6351" style="stop-color:#535353"/>
	<stop  offset="0.6661" style="stop-color:#707070"/>
	<stop  offset="0.6973" style="stop-color:#959595"/>
	<stop  offset="0.7283" style="stop-color:#C1C1C1"/>
	<stop  offset="0.7473" style="stop-color:#E0E0E0"/>
	<stop  offset="0.8901" style="stop-color:#FFFFFF"/>
</linearGradient>
<path id="path832" class="st175" d="M221.2,77.8c-2.2-0.9-3.4-2.8-4.1-7.7c-0.4-2.5-0.6-3.1-1.2-3.1l0.1-3.9c0.5,0,1,1.3,1.8,4.1
	c0.8,2.8,2.4,7.3,5.5,8.7L221.2,77.8z"/>
<path id="path834" class="st147" d="M241.9,81.2c-2.3,0.1-14.9,1.2-18.2,1.4c-3.4,0.2-4.5,2.4-5,3.3c-0.5,1-1.8,7.7-2,8.2
	c-0.1,0.6-0.3,1.7-0.7,1.7c-0.3,0-0.6-0.7-0.7-1.2c-0.1-0.6-1.5-6.5-1.9-8.2c-0.4-1.7-1.8-2.5-3.5-3.3c-1.6-0.8-5.7-1-5.7-1
	s-3.4-0.3-5.9-0.5c-2.5-0.1-3.8-0.6-3.8-1.3c0-0.7,1.7-0.6,3.8-0.9c6.6-0.2,8.6-0.6,12.2-1.7c3.3-1,3.8-5.6,4.1-7.3
	c0.3-1.7,0.8-3.5,1.4-3.5c0.6,0,0.8,0.6,1.2,3.1c0.8,4.8,1.9,6.8,4.1,7.7c3.8,1.3,16,1.7,18.3,1.7c0,0,7.2,0.1,11-0.1
	c3.8-0.2,10.4-0.9,11.9-1.2c1.5-0.3,3.6-1.2,4-3.6c0.4-2.5,1-5.3,1.8-5.3c0.7,0,1.2,2.1,1.3,2.7c0,0,0.6,4.7,3.2,5.7
	c2.7,1,6.8,1.3,8.4,1.4c1.7,0.1,3.1,0.4,3.1,1.2c0,0.8-2.1,1.2-3.1,1.2c-0.9,0-5.6,0.2-7.3,0.9c-1.7,0.8-3.1,1.3-3.8,4.5
	c-0.6,3.2-1,4.3-1,4.3s-0.1,1.3-1,1.3c-0.9,0-1.1-1.7-1.1-1.7s-1-5-1.7-6.2c-0.7-1.1-1.5-2.7-8.1-2.9
	C250.7,81.5,247.8,81.1,241.9,81.2z"/>
<linearGradient id="path853_1_" gradientUnits="userSpaceOnUse" x1="2456.8657" y1="-2815.1279" x2="2409.7126" y2="-2825.9338" gradientTransform="matrix(0.3644 0 0 -0.3644 -612.2844 -942.3812)">
	<stop  offset="0" style="stop-color:#B8B8B8"/>
	<stop  offset="0.1073" style="stop-color:#A0A0A0"/>
	<stop  offset="0.3187" style="stop-color:#757575"/>
	<stop  offset="0.4341" style="stop-color:#767676"/>
	<stop  offset="0.5604" style="stop-color:#737373"/>
	<stop  offset="0.6297" style="stop-color:#787878"/>
	<stop  offset="0.7097" style="stop-color:#868686"/>
	<stop  offset="0.7747" style="stop-color:#969696"/>
</linearGradient>
<path id="path853" class="st176" d="M270.1,86.9c0.6-3.2,2.1-3.8,3.8-4.5c1.7-0.8,6.4-0.9,7.3-0.9c0.9,0,3.1-0.5,3.1-1.2l7.5,0.1
	c0,0.8-4,1.2-4,1.2s-10.8,1.2-13,2.6c-1.6,1-2.8,1.8-3.9,5.3L270.1,86.9z"/>
<linearGradient id="path868_1_" gradientUnits="userSpaceOnUse" x1="2447.519" y1="-2795.4529" x2="2460.959" y2="-2808.8931" gradientTransform="matrix(0.3644 0 0 -0.3644 -612.2844 -942.3812)">
	<stop  offset="0" style="stop-color:#E6E6E6"/>
	<stop  offset="0.1017" style="stop-color:#C8C8C8"/>
	<stop  offset="0.2692" style="stop-color:#9C9C9C"/>
	<stop  offset="0.43" style="stop-color:#A6A6A6"/>
	<stop  offset="0.7532" style="stop-color:#B7B7B7"/>
	<stop  offset="1" style="stop-color:#BDBDBD"/>
</linearGradient>
<path id="path868" class="st177" d="M272.7,77.7c2.7,1,6.8,1.3,8.4,1.4c1.7,0.1,3.1,0.4,3.1,1.2c0,0.8-2.1,1.2-3.1,1.2l6.6,0.1
	c0,0,4-0.4,4-1.2c0-0.8-1-1.1-4-1.5c-3-0.4-8.8-1.8-12.5-2.6L272.7,77.7z"/>
<linearGradient id="path889_1_" gradientUnits="userSpaceOnUse" x1="2415.4651" y1="-2773.4424" x2="2430.8083" y2="-2808.6223" gradientTransform="matrix(0.3644 0 0 -0.3644 -612.2844 -942.3812)">
	<stop  offset="0.1429" style="stop-color:#DEDEDE"/>
	<stop  offset="0.236" style="stop-color:#A0A0A0"/>
	<stop  offset="0.3077" style="stop-color:#757575"/>
	<stop  offset="0.5769" style="stop-color:#737373"/>
	<stop  offset="0.6174" style="stop-color:#787878"/>
	<stop  offset="0.6642" style="stop-color:#868686"/>
	<stop  offset="0.7143" style="stop-color:#9D9D9D"/>
	<stop  offset="0.7665" style="stop-color:#BDBDBD"/>
	<stop  offset="0.8187" style="stop-color:#E6E6E6"/>
</linearGradient>
<path id="path889" class="st178" d="M275.8,78.5c-1.1-0.2-2.2-0.5-3.2-0.8c-2.7-1-3.2-5.7-3.2-5.7c-0.1-0.5-0.5-2.7-1.3-2.7
	c-0.8,0-1.4,2.8-1.8,5.3l-1.8-1.2c1.3-3,2.6-7.4,3.6-7.4c0.9-0.1,2.5,4.8,2.5,4.8s1.1,4.7,4.8,5.5c0.6,0.1,1.3,0.3,2,0.4L275.8,78.5
	z"/>
<linearGradient id="path902_1_" gradientUnits="userSpaceOnUse" x1="2322.6951" y1="-2785.8845" x2="2416.2532" y2="-2785.8845" gradientTransform="matrix(0.3644 0 0 -0.3644 -612.2844 -942.3812)">
	<stop  offset="8.239999e-02" style="stop-color:#999999"/>
	<stop  offset="0.1282" style="stop-color:#A4A4A4"/>
	<stop  offset="0.3242" style="stop-color:#CFCFCF"/>
	<stop  offset="0.5604" style="stop-color:#D9D9D9"/>
	<stop  offset="0.7582" style="stop-color:#E0E0E0"/>
</linearGradient>
<path id="path902" class="st179" d="M268.1,66c-1,0.1-2.3,4.4-3.5,7.4c-1.3,3-5.4,3.7-7.6,4c-2.2,0.3-5.7,1.3-11.3,1.4
	c-5.6,0.1-10.9-0.9-10.9-0.9l-0.8,1.3c2.5,0.1,4.6,0.2,5.5,0.2c0,0,7.2,0.1,11-0.1c3.8-0.2,10.4-0.9,11.9-1.2c1.5-0.3,3.6-1.2,4-3.6
	c0.4-2.5,1-5.3,1.8-5.3L268.1,66z"/>
<linearGradient id="path917_1_" gradientUnits="userSpaceOnUse" x1="2414.2219" y1="-2772.7493" x2="2418.0334" y2="-2772.7493" gradientTransform="matrix(0.3644 0 0 -0.3644 -612.2844 -942.3812)">
	<stop  offset="0" style="stop-color:#E3E3E3"/>
	<stop  offset="0.1097" style="stop-color:#DBDBDB"/>
	<stop  offset="0.2807" style="stop-color:#C5C5C5"/>
	<stop  offset="0.4505" style="stop-color:#A8A8A8"/>
	<stop  offset="0.6708" style="stop-color:#C8C8C8"/>
	<stop  offset="0.8242" style="stop-color:#E0E0E0"/>
</linearGradient>
<path id="path917" class="st180" d="M267.5,70c0.2-0.4,0.4-0.6,0.6-0.6c0.3,0,0.5,0.2,0.6,0.6v-3.3c-0.2-0.4-0.5-0.6-0.7-0.6
	c-0.2,0-0.5,0.2-0.7,0.6L267.5,70z"/>
<linearGradient id="path934_1_" gradientUnits="userSpaceOnUse" x1="2412.8528" y1="-2835.7043" x2="2424.719" y2="-2835.7043" gradientTransform="matrix(0.3644 0 0 -0.3644 -612.2844 -942.3812)">
	<stop  offset="0" style="stop-color:#BABABA"/>
	<stop  offset="0.1147" style="stop-color:#A0A0A0"/>
	<stop  offset="0.3187" style="stop-color:#757575"/>
	<stop  offset="0.4341" style="stop-color:#767676"/>
	<stop  offset="0.5604" style="stop-color:#737373"/>
	<stop  offset="0.6627" style="stop-color:#787878"/>
	<stop  offset="0.7747" style="stop-color:#858585"/>
</linearGradient>
<path id="path934" class="st181" d="M271.2,88.2c-0.5,1.3-1.1,3.1-1.7,5.7c-0.6,1.9-0.8,2.8-1.4,2.8c-0.3,0-0.8-0.9-1.3-2.4l0.2-3.5
	c0,0,0.2,1.7,1.1,1.7c0.9,0,1-1.3,1-1.3s0.3-1.1,1-4.3c0.1-0.7,0.3-1.3,0.5-1.7L271.2,88.2z"/>
<linearGradient id="path949_1_" gradientUnits="userSpaceOnUse" x1="2329.8066" y1="-2820.1687" x2="2411.4827" y2="-2820.1687" gradientTransform="matrix(0.3644 0 0 -0.3644 -612.2844 -942.3812)">
	<stop  offset="8.239999e-02" style="stop-color:#999999"/>
	<stop  offset="0.1746" style="stop-color:#7C7C7C"/>
	<stop  offset="0.3242" style="stop-color:#525252"/>
	<stop  offset="0.5604" style="stop-color:#404040"/>
	<stop  offset="0.7473" style="stop-color:#999999"/>
	<stop  offset="0.8681" style="stop-color:#D1D1D1"/>
</linearGradient>
<path id="path949" class="st182" d="M266.4,87.8c-0.3-1.3-0.7-2.6-1-3.1c-0.7-1.1-1.5-2.7-8.1-2.9c-6.6-0.2-9.5-0.7-15.4-0.5
	c-0.8,0-2.8,0.2-5.3,0.4l0.1,1.2c3.1-0.4,5.9-0.8,8.4-0.8c3.2,0,5.8,0.3,11.9,1.2c6.1,0.9,7.1,2,8.3,6.3L266.4,87.8z"/>
<linearGradient id="path970_1_" gradientUnits="userSpaceOnUse" x1="2419.6125" y1="-2842.3984" x2="2401.9329" y2="-2825.981" gradientTransform="matrix(0.3644 0 0 -0.3644 -612.2844 -942.3812)">
	<stop  offset="0" style="stop-color:#3B3B3B"/>
	<stop  offset="2.580000e-02" style="stop-color:#3D3D3D"/>
	<stop  offset="0.2555" style="stop-color:#4C4C4C"/>
	<stop  offset="0.4396" style="stop-color:#525252"/>
	<stop  offset="0.4973" style="stop-color:#585858"/>
	<stop  offset="0.5737" style="stop-color:#686868"/>
	<stop  offset="0.6264" style="stop-color:#787878"/>
	<stop  offset="0.7473" style="stop-color:#999999"/>
	<stop  offset="0.8681" style="stop-color:#D1D1D1"/>
</linearGradient>
<path id="path970" class="st183" d="M265.7,85.4c0.6,1.8,1.4,5.4,1.4,5.4s0.2,1.7,1.1,1.7l0,4.1c-0.6,0-1.6-3.1-2.9-7.3
	c-0.3-0.9-0.5-1.7-0.8-2.3L265.7,85.4z"/>
<linearGradient id="path979_1_" gradientUnits="userSpaceOnUse" x1="2203.0381" y1="-2804.8547" x2="2203.0381" y2="-2809.5879" gradientTransform="matrix(0.3644 0 0 -0.3644 -612.2844 -942.3812)">
	<stop  offset="0" style="stop-color:#BDBDBD"/>
	<stop  offset="0.4505" style="stop-color:#D9D9D9"/>
	<stop  offset="0.8242" style="stop-color:#A8A8A8"/>
</linearGradient>
<path id="path979" class="st184" d="M187.3,81.5c-1.1-0.3-1.9-0.7-1.9-1c0-0.4,0.8-0.7,2.1-1l8.2,0.2c-0.7,0.1-1.2,0.3-1.2,0.6
	c0,0.2,0.2,0.5,0.5,0.6L187.3,81.5z"/>
<linearGradient id="path988_1_" gradientUnits="userSpaceOnUse" x1="2271.689" y1="-2764.979" x2="2274.2087" y2="-2764.979" gradientTransform="matrix(0.3644 0 0 -0.3644 -612.2844 -942.3812)">
	<stop  offset="0" style="stop-color:#FFFFFF"/>
	<stop  offset="0.4505" style="stop-color:#BFBFBF"/>
	<stop  offset="0.8242" style="stop-color:#C2C2C2"/>
</linearGradient>
<path id="path988" class="st185" d="M215.5,67.2c0.1-0.1,0.2-0.2,0.4-0.2c0.2,0,0.3,0.1,0.5,0.2l0-3.7c-0.2-0.2-0.3-0.3-0.4-0.3
	c-0.1,0-0.3,0.2-0.5,0.4L215.5,67.2z"/>
<path id="path990" class="st145" d="M90.4,52.2l-14.9,2c0,0-2.7,0.1-2.7,1.1c0,1,2.3,1,3.1,1.1c0.8,0.1,16.8,2.2,16.8,2.2
	s25.5,3.5,27.9,3.9c2.5,0.4,9.3,1.3,12.3,4c3,2.7,5.5,8.4,7.4,16.9c1.8,8.5,3.8,15.7,3.8,15.7s0.3,2.6,1.3,2.6c1,0,1.3-2.7,1.3-2.7
	s5-19.9,6.2-23.4c1.2-3.5,3-10.8,14.1-12.6c11.1-1.7,31.9-4.1,31.9-4.1s20.3-2.5,27.2-2c6.9,0.4,14.7,1.4,16.7,1.7
	c1.9,0.3,5.1,0.6,6.4,4.1c1.4,3.4,2.9,9.8,2.9,9.8s0.5,2,1.2,2s1.2-1.8,1.2-1.8s2.3-7.8,3.1-9.7c0.8-2,2.5-3.7,8.5-4.4
	c6.1-0.8,12.5-2.1,12.5-2.1s3.1-0.1,3.1-1.2c0-1.2-3.3-1.2-3.3-1.2l-13.9-2.3c0,0-5.6-0.4-7-4.1c-1.4-3.7-2.9-7.7-2.9-7.7
	s-0.3-1.6-1.1-1.6s-1.2,2-1.2,2s-1.6,5.7-2.9,7.5c-1.3,1.8-2.9,3.7-9.8,4.4c-6.9,0.7-10.5,1.4-13.2,1.5c-2.7,0.1-8.4,0.1-12.9-0.5
	c-4.5-0.5-33.6-4.1-33.6-4.1s-11.7-1.3-15.3-2.5c-3.7-1.2-9.1-1.4-13.2-14.5c-4.2-13-4.4-14-4.4-14s-0.3-2.4-1.5-2.4
	c-1.1,0-1.5,2.7-1.5,2.7S139.2,33.5,137,38c-2.2,4.5-3.7,8.7-21.9,10.8C98.9,50.9,90.4,52.2,90.4,52.2z"/>
<linearGradient id="path1011_1_" gradientUnits="userSpaceOnUse" x1="1919.3834" y1="-2742.3225" x2="2072.646" y2="-2765.9014" gradientTransform="matrix(0.3644 0 0 -0.3644 -612.2844 -942.3812)">
	<stop  offset="0" style="stop-color:#A8A8A8"/>
	<stop  offset="8.790000e-02" style="stop-color:#6B6B6B"/>
	<stop  offset="0.3681" style="stop-color:#4D4D4D"/>
	<stop  offset="0.4521" style="stop-color:#505050"/>
	<stop  offset="0.5222" style="stop-color:#5A5A5A"/>
	<stop  offset="0.5875" style="stop-color:#6C6C6C"/>
	<stop  offset="0.6494" style="stop-color:#848484"/>
	<stop  offset="0.6868" style="stop-color:#969696"/>
	<stop  offset="0.8462" style="stop-color:#F0F0F0"/>
</linearGradient>
<path id="path1011" class="st186" d="M135.4,63.1c-2-1.5-4.3-2-6.4-2.4c-4.8-0.9-23.1-2.8-23.1-2.8l-18.1-1.5c0,0-3.5-0.3-3.5-1.1
	c0-0.8,3.5-0.9,3.5-0.9l-12.3-0.1c0,0-2.7,0.1-2.7,1.1c0,1,2.3,1,3.1,1.1c0.8,0.1,16.8,2.2,16.8,2.2s25.5,3.5,27.9,3.9
	c2.5,0.4,9.3,1.3,12.3,4L135.4,63.1z"/>
<linearGradient id="path1028_1_" gradientUnits="userSpaceOnUse" x1="1880.104" y1="-2683.7468" x2="2083.2224" y2="-2683.7468" gradientTransform="matrix(0.3644 0 0 -0.3644 -612.2844 -942.3812)">
	<stop  offset="0" style="stop-color:#A8A8A8"/>
	<stop  offset="0.6099" style="stop-color:#F0F0F0"/>
	<stop  offset="0.7363" style="stop-color:#FFFFFF"/>
	<stop  offset="0.8005" style="stop-color:#FBFBFB"/>
	<stop  offset="0.8712" style="stop-color:#EDEDED"/>
	<stop  offset="0.9447" style="stop-color:#D7D7D7"/>
	<stop  offset="1" style="stop-color:#C2C2C2"/>
</linearGradient>
<path id="path1028" class="st187" d="M146.8,18.2c0,0-0.3-2.4-1.5-2.4c-1.1,0-1.5,2.7-1.5,2.7S139.2,33.5,137,38
	c-2.2,4.5-3.7,8.7-21.9,10.8c-16.2,2.1-24.6,3.4-24.6,3.4l-14.9,2c0,0-2.7,0.1-2.7,1.1l11.5-0.1c0-0.8,3.5-0.9,3.5-0.9l13.7-1.2
	c0,0,15.5-1.3,23-2c7.5-0.8,13-5,15-9.2c2-4.2,4.4-17.2,4.4-17.2s0.4-4.2,1.5-4.2c1.1,0,1.4,4.1,1.4,4.1L146.8,18.2z"/>
<linearGradient id="path1057_1_" gradientUnits="userSpaceOnUse" x1="2075.1187" y1="-2679.0439" x2="2165.6377" y2="-2679.0439" gradientTransform="matrix(0.3644 0 0 -0.3644 -612.2844 -942.3812)">
	<stop  offset="0" style="stop-color:#CFCFCF"/>
	<stop  offset="8.239999e-02" style="stop-color:#D9D9D9"/>
	<stop  offset="0.1429" style="stop-color:#6B6B6B"/>
	<stop  offset="0.1918" style="stop-color:#5F5F5F"/>
	<stop  offset="0.2857" style="stop-color:#4D4D4D"/>
	<stop  offset="0.3002" style="stop-color:#505050"/>
	<stop  offset="0.5165" style="stop-color:#7A7A7A"/>
	<stop  offset="0.5764" style="stop-color:#7F7F7F"/>
	<stop  offset="0.6378" style="stop-color:#8B8B8B"/>
	<stop  offset="0.6997" style="stop-color:#9F9F9F"/>
	<stop  offset="0.7619" style="stop-color:#BCBCBC"/>
	<stop  offset="0.8242" style="stop-color:#E0E0E0"/>
	<stop  offset="0.9725" style="stop-color:#EDEDED"/>
</linearGradient>
<path id="path1057" class="st188" d="M176.8,48.7c-3.7-0.5-9.8-1.3-12.3-2.2c-3.7-1.2-9.1-1.4-13.2-14.5c-4.2-13-4.4-14-4.4-14
	s-0.3-2.4-1.5-2.4c-1.1,0-1.5,2.7-1.5,2.7l0,6.2c0,0,0.4-4.2,1.5-4.2c0.7,0,1.1,1.8,1.3,3c0.1,0.6,0.1,1,0.1,1s0.1,0.3,0.2,0.8
	c0.6,2.5,2.5,10.8,3.3,14.1c1,4,3.8,8.1,8.4,10c4.6,1.9,15.4,2.6,17.4,2.6L176.8,48.7z"/>
<linearGradient id="path1066_1_" gradientUnits="userSpaceOnUse" x1="2076.6624" y1="-2637.564" x2="2081.9319" y2="-2637.564" gradientTransform="matrix(0.3644 0 0 -0.3644 -612.2844 -942.3812)">
	<stop  offset="0" style="stop-color:#D4D4D4"/>
	<stop  offset="0.5275" style="stop-color:#9E9E9E"/>
	<stop  offset="0.8242" style="stop-color:#D9D9D9"/>
</linearGradient>
<path id="path1066" class="st189" d="M144.4,21.7c0.2-0.7,0.5-1.2,0.9-1.2c0.4,0,0.7,0.6,0.9,1.3l0.1-5.2c-0.2-0.4-0.5-0.8-1-0.8
	c-0.4,0-0.7,0.3-0.9,0.8L144.4,21.7z"/>
<linearGradient id="path1077_1_" gradientUnits="userSpaceOnUse" x1="2353.0613" y1="-2696.8235" x2="2335.5654" y2="-2729.3853" gradientTransform="matrix(0.3644 0 0 -0.3644 -612.2844 -942.3812)">
	<stop  offset="0" style="stop-color:#D1D1D1"/>
	<stop  offset="0.6209" style="stop-color:#FFFFFF"/>
	<stop  offset="0.7991" style="stop-color:#D6D6D6"/>
	<stop  offset="1" style="stop-color:#ABABAB"/>
</linearGradient>
<path id="path1077" class="st190" d="M254.6,44.9c-0.3-1.4-0.4-2.7-1.1-2.7c-0.7,0-1,1.7-1.2,2.7c-0.2,1.1-0.8,5.6-2.6,6.7
	c-1.8,1.2-5.2,2.1-9.2,2.3c-4,0.2-12.5,0.5-14.8,0.5l0.7-0.9c2.7-0.1,6.3-0.8,13.2-1.5c6.9-0.7,8.5-2.5,9.8-4.4
	c1.3-1.8,2.9-7.5,2.9-7.5s0.4-2,1.2-2c0.8,0,1.1,1.6,1.1,1.6L254.6,44.9z"/>
<linearGradient id="path1094_1_" gradientUnits="userSpaceOnUse" x1="2422.4656" y1="-2725.4084" x2="2427.1467" y2="-2752.833" gradientTransform="matrix(0.3644 0 0 -0.3644 -612.2844 -942.3812)">
	<stop  offset="6.590000e-02" style="stop-color:#FFFFFF"/>
	<stop  offset="0.2637" style="stop-color:#8C8C8C"/>
	<stop  offset="0.3083" style="stop-color:#777777"/>
	<stop  offset="0.4066" style="stop-color:#4D4D4D"/>
	<stop  offset="0.6394" style="stop-color:#494949"/>
	<stop  offset="0.6868" style="stop-color:#474747"/>
	<stop  offset="1" style="stop-color:#EBEBEB"/>
</linearGradient>
<path id="path1094" class="st191" d="M260.4,53.1c1.5,0.3,3,0.4,4.1,0.5c2.1,0.2,6.5,0.6,6.5,0.6s2.5,0.2,2.5,0.9c0,0.7-2.4,1-2.4,1
	l7.5,0.3c0,0,3.1-0.1,3.1-1.2s-3.3-1.2-3.3-1.2l-13.9-2.3c0,0-0.6,0-1.5-0.2L260.4,53.1z"/>
<linearGradient id="path1113_1_" gradientUnits="userSpaceOnUse" x1="2390.0127" y1="-2740.3931" x2="2373.1711" y2="-2805.2317" gradientTransform="matrix(0.3644 0 0 -0.3644 -612.2844 -942.3812)">
	<stop  offset="6.040000e-02" style="stop-color:#E0E0E0"/>
	<stop  offset="0.2582" style="stop-color:#EBEBEB"/>
	<stop  offset="0.2667" style="stop-color:#E4E4E4"/>
	<stop  offset="0.4092" style="stop-color:#787878"/>
	<stop  offset="0.4725" style="stop-color:#4D4D4D"/>
	<stop  offset="0.6701" style="stop-color:#4D4D4D"/>
	<stop  offset="0.6868" style="stop-color:#4D4D4D"/>
	<stop  offset="1" style="stop-color:#5E5E5E"/>
</linearGradient>
<path id="path1113" class="st192" d="M257.2,59c-1.5,1.3-2,5.6-2.2,6.4c-0.1,0.8-0.7,3.5-0.7,3.5s-0.2,1.3-0.7,1.3l-0.2,4.4
	c0.8,0,1.2-1.8,1.2-1.8s2.3-7.8,3.1-9.7c0.3-0.6,0.6-1.3,1.2-1.8L257.2,59z"/>
<linearGradient id="path1136_1_" gradientUnits="userSpaceOnUse" x1="2104.0737" y1="-2772.8738" x2="2075.1638" y2="-2870.8323" gradientTransform="matrix(0.3644 0 0 -0.3644 -612.2844 -942.3812)">
	<stop  offset="0" style="stop-color:#BDBDBD"/>
	<stop  offset="0.2253" style="stop-color:#828282"/>
	<stop  offset="0.2596" style="stop-color:#777777"/>
	<stop  offset="0.4066" style="stop-color:#4D4D4D"/>
	<stop  offset="0.4804" style="stop-color:#505050"/>
	<stop  offset="0.5421" style="stop-color:#5A5A5A"/>
	<stop  offset="0.5995" style="stop-color:#6C6C6C"/>
	<stop  offset="0.6539" style="stop-color:#848484"/>
	<stop  offset="0.6868" style="stop-color:#969696"/>
	<stop  offset="1" style="stop-color:#9C9C9C"/>
</linearGradient>
<path id="path1136" class="st193" d="M145.3,96.1c1.2,0,1.3-2.8,1.3-2.8s2.7-16.3,3.1-18.2c0.4-1.9,1.7-8.5,4.6-10.9l3.1,3.3
	c-2.9,2.8-3.8,6.2-4.5,8.3c-1.2,3.5-6.2,23.4-6.2,23.4s-0.3,2.7-1.3,2.7L145.3,96.1L145.3,96.1z"/>
<linearGradient id="path1157_1_" gradientUnits="userSpaceOnUse" x1="2053.7229" y1="-2782.7969" x2="2072.2485" y2="-2879.3535" gradientTransform="matrix(0.3644 0 0 -0.3644 -612.2844 -942.3812)">
	<stop  offset="0" style="stop-color:#B5B5B5"/>
	<stop  offset="0.2253" style="stop-color:#6B6B6B"/>
	<stop  offset="0.4066" style="stop-color:#4D4D4D"/>
	<stop  offset="0.4804" style="stop-color:#505050"/>
	<stop  offset="0.5421" style="stop-color:#5A5A5A"/>
	<stop  offset="0.5995" style="stop-color:#6C6C6C"/>
	<stop  offset="0.6539" style="stop-color:#848484"/>
	<stop  offset="0.6868" style="stop-color:#969696"/>
	<stop  offset="1" style="stop-color:#C2C2C2"/>
</linearGradient>
<path id="path1157" class="st194" d="M146.7,93.3c0,0-0.1,2.8-1.3,2.8c-1.2,0-1.2-2.8-1.2-2.8s-1.1-6-2.9-18.1
	c-1.7-12.1-7.5-13.6-12.3-14.5l-0.7,3.6c1.8,0.6,3.5,1.3,4.6,2.3c3,2.7,5.5,8.4,7.4,16.9c1.8,8.5,3.8,15.7,3.8,15.7s0.3,2.6,1.3,2.6
	c1,0,1.3-2.7,1.3-2.7V93.3L146.7,93.3z"/>
<linearGradient id="path1166_1_" gradientUnits="userSpaceOnUse" x1="2076.9854" y1="-2856.043" x2="2081.4851" y2="-2856.043" gradientTransform="matrix(0.3644 0 0 -0.3644 -612.2844 -942.3812)">
	<stop  offset="0" style="stop-color:#999999"/>
	<stop  offset="0.4505" style="stop-color:#E6E6E6"/>
	<stop  offset="0.8242" style="stop-color:#A3A3A3"/>
</linearGradient>
<path id="path1166" class="st195" d="M144.3,100.5c0.2,0.6,0.5,1.3,1,1.3c0.5,0,0.8-0.6,1-1.2l0-5.6c-0.2,0.6-0.5,1.1-1,1.1
	c-0.5,0-0.9-0.6-1-1.2L144.3,100.5z"/>
<linearGradient id="path1185_1_" gradientUnits="userSpaceOnUse" x1="1900.5973" y1="-2734.9065" x2="1900.5973" y2="-2741.46" gradientTransform="matrix(0.3644 0 0 -0.3644 -612.2844 -942.3812)">
	<stop  offset="0" style="stop-color:#A8A8A8"/>
	<stop  offset="4.340000e-02" style="stop-color:#B2B2B2"/>
	<stop  offset="0.2581" style="stop-color:#DCDCDC"/>
	<stop  offset="0.4268" style="stop-color:#F5F5F5"/>
	<stop  offset="0.5275" style="stop-color:#FFFFFF"/>
	<stop  offset="0.6462" style="stop-color:#EBEBEB"/>
	<stop  offset="0.8878" style="stop-color:#B8B8B8"/>
	<stop  offset="1" style="stop-color:#9E9E9E"/>
</linearGradient>
<path id="path1185" class="st196" d="M87.8,56.4c0,0-3.5-0.3-3.5-1.1c0-0.8,3.5-0.9,3.5-0.9l-12.3-0.1c0,0-2.7,0.1-2.7,1.1
	c0,1,2.3,1,3.1,1.1L87.8,56.4z"/>
<linearGradient id="path1200_1_" gradientUnits="userSpaceOnUse" x1="2121.0105" y1="-2784.2849" x2="2255.2036" y2="-2721.9607" gradientTransform="matrix(0.3644 0 0 -0.3644 -612.2844 -942.3812)">
	<stop  offset="0" style="stop-color:#BDBDBD"/>
	<stop  offset="0.2637" style="stop-color:#6B6B6B"/>
	<stop  offset="0.4066" style="stop-color:#4D4D4D"/>
	<stop  offset="0.6394" style="stop-color:#494949"/>
	<stop  offset="0.6868" style="stop-color:#474747"/>
	<stop  offset="1" style="stop-color:#545454"/>
</linearGradient>
<path id="path1200" class="st197" d="M157.1,67.8c2-2.1,5.1-3.9,9.9-4.7c11.1-1.7,31.9-4.1,31.9-4.1s10.5-1.3,19-1.8l0.1-1.2
	c-4,0-32,2.5-45.3,3.4c-13.3,0.9-15.5,2.4-18.4,4.8L157.1,67.8z"/>
<linearGradient id="path1215_1_" gradientUnits="userSpaceOnUse" x1="2362.7402" y1="-2752.8269" x2="2308.1038" y2="-2742.7224" gradientTransform="matrix(0.3644 0 0 -0.3644 -612.2844 -942.3812)">
	<stop  offset="0" style="stop-color:#BFBFBF"/>
	<stop  offset="0.2637" style="stop-color:#737373"/>
	<stop  offset="0.4066" style="stop-color:#4D4D4D"/>
	<stop  offset="0.6394" style="stop-color:#494949"/>
	<stop  offset="0.6868" style="stop-color:#474747"/>
	<stop  offset="1" style="stop-color:#545454"/>
</linearGradient>
<path id="path1215" class="st198" d="M248.2,61c-1.6-1.8-3.8-2-5.4-2.3c-1.9-0.3-9.7-1.3-16.7-1.7c-2.4-0.1-6.3,0.1-10.4,0.4
	l-0.1-1.3c1.1-0.1,1.9-0.1,2.4-0.1c4,0,9.9,0,15.4,0.4c5.5,0.4,12,0.5,14.9,1.8c0.7,0.3,1.2,0.8,1.7,1.5L248.2,61z"/>
<linearGradient id="path1232_1_" gradientUnits="userSpaceOnUse" x1="2364.7332" y1="-2745.2964" x2="2375.1235" y2="-2789.4109" gradientTransform="matrix(0.3644 0 0 -0.3644 -612.2844 -942.3812)">
	<stop  offset="0" style="stop-color:#D1D1D1"/>
	<stop  offset="0.2418" style="stop-color:#9C9C9C"/>
	<stop  offset="0.3284" style="stop-color:#777777"/>
	<stop  offset="0.4396" style="stop-color:#4D4D4D"/>
	<stop  offset="0.645" style="stop-color:#494949"/>
	<stop  offset="0.6868" style="stop-color:#474747"/>
	<stop  offset="1" style="stop-color:#4D4D4D"/>
</linearGradient>
<path id="path1232" class="st199" d="M247.8,60.6c0.6,0.5,1.1,1.2,1.5,2.2c1.4,3.4,2.9,9.8,2.9,9.8s0.5,2,1.2,2
	c0.8,0,1.2-1.8,1.2-1.8l-0.3-3.9c0,0-0.2,1.3-0.7,1.3c-0.5,0-0.6-0.7-0.8-1.3c-0.2-0.6-0.6-2.6-0.8-3.5c-0.2-0.8-0.6-4.4-2.3-6.3
	L247.8,60.6z"/>
<linearGradient id="path1261_1_" gradientUnits="userSpaceOnUse" x1="2373.2148" y1="-2783.0537" x2="2378.4509" y2="-2783.0537" gradientTransform="matrix(0.3644 0 0 -0.3644 -612.2844 -942.3812)">
	<stop  offset="0" style="stop-color:#4A4A4A"/>
	<stop  offset="0.1028" style="stop-color:#4D4D4D"/>
	<stop  offset="0.1881" style="stop-color:#575757"/>
	<stop  offset="0.267" style="stop-color:#696969"/>
	<stop  offset="0.3421" style="stop-color:#818181"/>
	<stop  offset="0.4146" style="stop-color:#A0A0A0"/>
	<stop  offset="0.4841" style="stop-color:#C6C6C6"/>
	<stop  offset="0.5055" style="stop-color:#D4D4D4"/>
	<stop  offset="0.5481" style="stop-color:#CACACA"/>
	<stop  offset="0.6198" style="stop-color:#B0B0B0"/>
	<stop  offset="0.711" style="stop-color:#868686"/>
	<stop  offset="0.7527" style="stop-color:#707070"/>
	<stop  offset="0.9396" style="stop-color:#4F4F4F"/>
</linearGradient>
<path id="path1261" class="st200" d="M252.1,72.6c0,0,0.5,2,1.2,2c0.8,0,1.2-1.8,1.2-1.8l-0.3-3.9c0,0-0.2,1.3-0.7,1.3
	c-0.5,0-0.6-0.7-0.8-1.3L252.1,72.6z"/>
<linearGradient id="path1282_1_" gradientUnits="userSpaceOnUse" x1="2389.4241" y1="-2750.1831" x2="2434.2427" y2="-2739.6111" gradientTransform="matrix(0.3644 0 0 -0.3644 -612.2844 -942.3812)">
	<stop  offset="0" style="stop-color:#E6E6E6"/>
	<stop  offset="0.2308" style="stop-color:#737373"/>
	<stop  offset="0.4505" style="stop-color:#4D4D4D"/>
	<stop  offset="0.6319" style="stop-color:#474747"/>
	<stop  offset="0.6923" style="stop-color:#666666"/>
	<stop  offset="0.7893" style="stop-color:#929292"/>
	<stop  offset="0.8763" style="stop-color:#B2B2B2"/>
	<stop  offset="0.9496" style="stop-color:#C5C5C5"/>
	<stop  offset="1" style="stop-color:#CCCCCC"/>
</linearGradient>
<path id="path1282" class="st201" d="M258.5,61.6c0.1-0.1,0.2-0.3,0.4-0.4c1.2-1.1,3.3-2.1,7.3-2.6c6.1-0.8,12.5-2.1,12.5-2.1
	s3.1-0.1,3.1-1.2l-8.2,0c0,0.7-2.4,1-2.4,1S269,56.7,265,57c-4,0.3-6.2,0.6-7.8,1.9c-0.1,0.1-0.2,0.2-0.2,0.3L258.5,61.6z"/>
<linearGradient id="path1301_1_" gradientUnits="userSpaceOnUse" x1="2440.5894" y1="-2739.8145" x2="2440.5198" y2="-2735.99" gradientTransform="matrix(0.3644 0 0 -0.3644 -612.2844 -942.3812)">
	<stop  offset="0" style="stop-color:#C9C9C9"/>
	<stop  offset="0.2457" style="stop-color:#C6C6C6"/>
	<stop  offset="0.4489" style="stop-color:#BCBCBC"/>
	<stop  offset="0.5055" style="stop-color:#B8B8B8"/>
	<stop  offset="0.5541" style="stop-color:#AEAEAE"/>
	<stop  offset="0.6358" style="stop-color:#949494"/>
	<stop  offset="0.7253" style="stop-color:#707070"/>
	<stop  offset="0.9396" style="stop-color:#4F4F4F"/>
</linearGradient>
<path id="path1301" class="st202" d="M272.4,54.5c0.6,0.1,1.1,0.4,1.1,0.7c0,0.2-0.2,0.4-0.6,0.6l8.2,0.2c0.3-0.2,0.5-0.4,0.5-0.7
	c0-0.7-1.1-1-2-1.1L272.4,54.5z"/>
<linearGradient id="path1318_1_" gradientUnits="userSpaceOnUse" x1="2395.2607" y1="-2730.5696" x2="2380.5708" y2="-2696.228" gradientTransform="matrix(0.3644 0 0 -0.3644 -612.2844 -942.3812)">
	<stop  offset="0" style="stop-color:#FFFFFF"/>
	<stop  offset="0.1264" style="stop-color:#A6A6A6"/>
	<stop  offset="0.2743" style="stop-color:#777777"/>
	<stop  offset="0.4231" style="stop-color:#4D4D4D"/>
	<stop  offset="0.7308" style="stop-color:#474747"/>
	<stop  offset="0.9916" style="stop-color:#515151"/>
	<stop  offset="1" style="stop-color:#525252"/>
</linearGradient>
<path id="path1318" class="st203" d="M253.5,42.2c0.7,0,0.9,1.3,1.1,2.7c0.3,1.4,0.7,5.1,2.5,6.7c1,0.9,2.4,1.3,3.9,1.6l2.7-1.6
	c-1.6-0.3-5.1-1.2-6.1-4c-1.4-3.7-2.9-7.7-2.9-7.7s-0.3-1.6-1.1-1.6V42.2L253.5,42.2z"/>
<linearGradient id="path1339_1_" gradientUnits="userSpaceOnUse" x1="2373.1118" y1="-2697.4551" x2="2378.0857" y2="-2697.4551" gradientTransform="matrix(0.3644 0 0 -0.3644 -612.2844 -942.3812)">
	<stop  offset="0" style="stop-color:#D4D4D4"/>
	<stop  offset="0.2026" style="stop-color:#D0D0D0"/>
	<stop  offset="0.3703" style="stop-color:#C6C6C6"/>
	<stop  offset="0.5055" style="stop-color:#B8B8B8"/>
	<stop  offset="0.5466" style="stop-color:#AEAEAE"/>
	<stop  offset="0.6157" style="stop-color:#949494"/>
	<stop  offset="0.7036" style="stop-color:#6A6A6A"/>
	<stop  offset="0.7253" style="stop-color:#5E5E5E"/>
	<stop  offset="0.9396" style="stop-color:#4D4D4D"/>
</linearGradient>
<path id="path1339" class="st204" d="M252.9,38.7c0.2-0.2,0.4-0.4,0.6-0.4c0.3,0,0.5,0.2,0.6,0.4l0,4c-0.2-0.3-0.3-0.5-0.6-0.5
	c-0.3,0-0.5,0.2-0.6,0.6L252.9,38.7z"/>
<linearGradient id="path1350_1_" gradientUnits="userSpaceOnUse" x1="2151.9148" y1="-2723.4248" x2="2301.533" y2="-2734.0918" gradientTransform="matrix(0.3644 0 0 -0.3644 -612.2844 -942.3812)">
	<stop  offset="0" style="stop-color:#E8E8E8"/>
	<stop  offset="0.6209" style="stop-color:#FFFFFF"/>
	<stop  offset="0.7991" style="stop-color:#D6D6D6"/>
	<stop  offset="1" style="stop-color:#ABABAB"/>
</linearGradient>
<path id="path1350" class="st205" d="M232,53.1c-2.4,0.3-4.1,0.6-5.6,0.6c-2.7,0.1-8.4,0.1-12.9-0.5c-4.5-0.5-33.6-4.1-33.6-4.1
	s-1.8-0.2-4.1-0.5l-0.1,3.4c1.9,0.1,29.2,2,33.5,2.2c4.3,0.2,14.2,0.3,16.5,0.3c1.1,0,3.7-0.1,6.5-0.2L232,53.1z"/>
<linearGradient id="path1371_1_" gradientUnits="userSpaceOnUse" x1="2412.8528" y1="-2843.4438" x2="2420.1785" y2="-2843.4438" gradientTransform="matrix(0.3644 0 0 -0.3644 -612.2844 -942.3812)">
	<stop  offset="2.750000e-02" style="stop-color:#4A4A4A"/>
	<stop  offset="8.940001e-02" style="stop-color:#575757"/>
	<stop  offset="0.2055" style="stop-color:#7B7B7B"/>
	<stop  offset="0.3571" style="stop-color:#B2B2B2"/>
	<stop  offset="0.489" style="stop-color:#D4D4D4"/>
	<stop  offset="0.55" style="stop-color:#C7C7C7"/>
	<stop  offset="0.6618" style="stop-color:#A5A5A5"/>
	<stop  offset="0.7198" style="stop-color:#919191"/>
	<stop  offset="0.8736" style="stop-color:#757575"/>
</linearGradient>
<path id="path1371" class="st206" d="M267.1,90.8c0,0,0.2,1.7,1.1,1.7c0.9,0,1-1.3,1-1.3l0.4,2.7c-0.6,1.9-0.8,2.8-1.4,2.8
	c-0.3,0-0.8-0.9-1.3-2.4L267.1,90.8z"/>
<radialGradient id="path1396_1_" cx="2050.4607" cy="-2717.2883" r="267.0812" gradientTransform="matrix(0.3644 0 0 -0.3644 -612.2844 -942.3812)" gradientUnits="userSpaceOnUse">
	<stop  offset="7.140000e-02" style="stop-color:#FFFFFF"/>
	<stop  offset="7.500000e-02" style="stop-color:#FDFDFD"/>
	<stop  offset="0.144" style="stop-color:#D5D5D5"/>
	<stop  offset="0.2073" style="stop-color:#B8B8B8"/>
	<stop  offset="0.2621" style="stop-color:#A7A7A7"/>
	<stop  offset="0.3022" style="stop-color:#A1A1A1"/>
	<stop  offset="0.3748" style="stop-color:#8F8F8F"/>
	<stop  offset="0.483" style="stop-color:#7D7D7D"/>
	<stop  offset="0.5947" style="stop-color:#717171"/>
	<stop  offset="0.7143" style="stop-color:#6E6E6E"/>
	<stop  offset="1" style="stop-color:#696969"/>
</radialGradient>
<path id="path1396" class="st207" d="M101.5,53.1l-13.7,1.2c0,0-3.5,0.1-3.5,0.9c0,0.8,3.5,1.1,3.5,1.1l18.1,1.5
	c0,0,18.3,1.8,23.1,2.8c4.8,0.9,10.5,2.5,12.3,14.5c1.7,12.1,2.9,18.1,2.9,18.1s0,2.8,1.2,2.8c1.2,0,1.3-2.8,1.3-2.8
	s2.7-16.3,3.1-18.2c0.4-1.9,1.7-8.5,4.6-10.9c2.9-2.5,5.1-3.9,18.4-4.8c13.3-0.9,41.3-3.4,45.3-3.4c4,0,9.9,0,15.4,0.4
	c5.5,0.4,12,0.5,14.9,1.8c2.8,1.3,3.3,6.2,3.5,7.2c0.2,0.9,0.6,2.9,0.8,3.5c0.2,0.6,0.3,1.3,0.8,1.3c0.5,0,0.8-1.3,0.8-1.3
	s0.6-2.7,0.7-3.5c0.1-0.8,0.6-5.1,2.2-6.4c1.5-1.3,3.8-1.7,7.8-1.9c4-0.3,6.2-0.8,6.2-0.8s2.4-0.3,2.4-1c0-0.7-2.5-0.9-2.5-0.9
	s-4.4-0.5-6.5-0.6c-2.1-0.2-5.6-0.4-7.4-2c-1.8-1.6-2.2-5.3-2.5-6.7c-0.3-1.4-0.4-2.7-1.1-2.7c-0.7,0-1,1.7-1.2,2.7
	c-0.2,1.1-0.8,5.6-2.6,6.7c-1.8,1.2-5.2,2.1-9.2,2.3c-4,0.2-12.5,0.5-14.8,0.5s-12.2-0.1-16.5-0.3C204.8,54,177.9,52,176,52
	c-1.9-0.1-12.8-0.7-17.4-2.6c-4.5-1.9-7.4-6-8.4-10c-1-4-3.4-14.9-3.4-14.9s-0.5-4.1-1.5-4c-1.1,0-1.5,4.2-1.5,4.2s-2.3,13-4.3,17.2
	c-2,4.2-7.6,8.4-15,9.2C117,51.9,101.5,53.1,101.5,53.1z"/>
<linearGradient id="path1415_1_" gradientUnits="userSpaceOnUse" x1="2316.5493" y1="-2778.876" x2="2377.179" y2="-2860.8386" gradientTransform="matrix(0.3644 0 0 -0.3644 -612.2844 -942.3812)">
	<stop  offset="0" style="stop-color:#ADADAD"/>
	<stop  offset="9.180000e-02" style="stop-color:#999999"/>
	<stop  offset="0.1538" style="stop-color:#919191"/>
	<stop  offset="0.1679" style="stop-color:#8F8F8F"/>
	<stop  offset="0.3421" style="stop-color:#7D7D7D"/>
	<stop  offset="0.5219" style="stop-color:#717171"/>
	<stop  offset="0.7143" style="stop-color:#6E6E6E"/>
	<stop  offset="1" style="stop-color:#8A8A8A"/>
</linearGradient>
<path id="path1415" class="st208" d="M241.9,81.2c-2.3,0.1-14.9,1.2-18.2,1.4c-3.4,0.2-4.5,2.4-5,3.3c-0.5,1-1.8,7.7-2,8.2
	c-0.1,0.6-0.3,1.7-0.7,1.7c-0.3,0-0.6-0.7-0.7-1.2c-0.1-0.6-1.5-6.5-1.9-8.2c-0.4-1.7-1.8-2.5-3.5-3.3c-1.6-0.8-5.7-1-5.7-1
	s-3.4-0.3-5.9-0.5c-2.5-0.1-3.8-0.6-3.8-1.3c0-0.7,1.7-0.6,3.8-0.9c6.6-0.2,8.6-0.6,12.2-1.7c3.3-1,3.8-5.6,4.1-7.3
	c0.3-1.7,0.8-3.5,1.4-3.5c0.6,0,0.8,0.6,1.2,3.1c0.8,4.8,1.9,6.8,4.1,7.7c3.8,1.3,16,1.7,18.3,1.7c0,0,7.2,0.1,11-0.1
	c3.8-0.2,10.4-0.9,11.9-1.2c1.5-0.3,3.6-1.2,4-3.6c0.4-2.5,1-5.3,1.8-5.3c0.7,0,1.2,2.1,1.3,2.7c0,0,0.6,4.7,3.2,5.7
	c2.7,1,6.8,1.3,8.4,1.4c1.7,0.1,3.1,0.4,3.1,1.2c0,0.8-2.1,1.2-3.1,1.2c-0.9,0-5.6,0.2-7.3,0.9c-1.7,0.8-3.1,1.3-3.8,4.5
	c-0.6,3.2-1,4.3-1,4.3s-0.1,1.3-1,1.3c-0.9,0-1.1-1.7-1.1-1.7s-1-5-1.7-6.2c-0.7-1.1-1.5-2.7-8.1-2.9
	C250.7,81.5,247.8,81.1,241.9,81.2z"/>
<linearGradient id="path1428_1_" gradientUnits="userSpaceOnUse" x1="2314.4429" y1="-2931.5034" x2="2283.3752" y2="-2908.2947" gradientTransform="matrix(0.3644 0 0 -0.3644 -612.2844 -942.3812)">
	<stop  offset="0" style="stop-color:#E6E6E6"/>
	<stop  offset="0.2444" style="stop-color:#C6C6C6"/>
	<stop  offset="0.564" style="stop-color:#A4A4A4"/>
	<stop  offset="0.8273" style="stop-color:#8F8F8F"/>
	<stop  offset="1" style="stop-color:#878787"/>
</linearGradient>
<path id="path1428" class="st209" d="M166.1,107.4c0,0,4.1,0.2,5.7,1c1.6,0.8,3.1,1.6,3.5,3.2c0.4,1.6,1.8,7.5,1.9,8
	c0.1,0.5,0.3,1.2,0.7,1.2s0.5-1.1,0.7-1.6c0.1-0.5,1.5-7.2,2-8.1c0.5-1,1.6-3.1,5-3.3c3.3-0.2,15.9-1.3,18.1-1.4
	c2.3-0.1,15.3,0.3,18.5,0.6c3.1,0.3,7.6,0.5,8.6,3c1,2.5,1.3,4.8,1.6,5.7c0.3,0.9,0.5,1.6,1.1,1.6c0.6,0,0.9-1.1,1-1.7
	c0.1-0.6,0.9-7.2,4.4-7.9c3.5-0.7,9.1-1.2,10.3-1.2c1.2-0.1,2.2-0.1,2.2-1c0-0.9-1.6-0.9-2.6-0.9c-1,0-7.6-0.3-10.2-1.4
	c-2.6-1-3.5-2.8-4.2-6.7c-0.2-1.2-0.7-2.2-1.2-2.2c-0.5,0-1,1.3-1.2,2.3c-0.2,1-0.1,4.3-2.3,5.7c-2.2,1.4-4.5,1.9-12.1,2.3
	c-7.6,0.4-14,0.3-16.3,0.2c-2.3-0.1-14.4-0.4-18.2-1.7c-2.2-0.9-3.3-2.8-4.1-7.6c-0.4-2.5-0.6-3.1-1.2-3.1c-0.6,0-1,1.8-1.4,3.5
	c-0.3,1.6-0.8,6.2-4.1,7.2c-3.5,1.1-5.5,1.4-12.1,1.6c-2,0.3-3.8,0.2-3.8,0.9c0,0.7,1.3,1.2,3.8,1.3
	C162.7,107.1,166.1,107.4,166.1,107.4z"/>
<linearGradient id="path1443_1_" gradientUnits="userSpaceOnUse" x1="2469.2629" y1="-2804.3811" x2="2469.2629" y2="-2808.8738" gradientTransform="matrix(0.3644 0 0 -0.3644 -612.2844 -942.3812)">
	<stop  offset="0" style="stop-color:#C2C2C2"/>
	<stop  offset="0.1258" style="stop-color:#BABABA"/>
	<stop  offset="0.3218" style="stop-color:#A4A4A4"/>
	<stop  offset="0.4505" style="stop-color:#919191"/>
	<stop  offset="0.7154" style="stop-color:#B1B1B1"/>
	<stop  offset="0.8242" style="stop-color:#BFBFBF"/>
</linearGradient>
<path id="path1443" class="st210" d="M283.9,79.7c0.2,0.1,0.3,0.3,0.3,0.5c0,0.3-0.4,0.6-0.9,0.8l6.2,0.3c1.1-0.2,2.2-0.5,2.2-1
	c0-0.6-0.5-0.9-1.9-1.2L283.9,79.7z"/>
</svg>
