<?xml version="1.0" encoding="UTF-8"?><svg id="Layer_2" xmlns="http://www.w3.org/2000/svg" viewBox="0 0 56 56"><defs><style>.cls-1{fill:#2c9e2d;}.cls-2{fill:#fff;}</style></defs><g id="Layer_1-2"><circle class="cls-1" cx="28" cy="28" r="28"/><path class="cls-2" d="M40.57,16.35c-.22-.17-.51-.19-.75-.06-1.94,1.05-5.68,1.58-9.63,2.14-2,.28-4.06.57-5.9.94-6.45,1.29-9.13,6.81-9.13,9.47,0,1.65.88,3.16,1.63,4.14.15.2.4.3.65.27.25-.03.46-.19.55-.42,3.6-8.81,12.08-10.54,15.35-10.88-10.14,2.75-12.97,9.84-15.48,16.13l-.12.29c-.07.18-.07.37.01.55.08.17.22.31.41.37l1.35.47c.08.03.15.04.23.04.28,0,.54-.16.65-.43l.81-1.96c.09-.22.33-.34.56-.27.51.15.94.23,1.26.23,5.08,0,9.41-2.76,12.87-8.2,2.8-4.41,4.29-9.46,4.94-12.08.07-.27-.03-.55-.25-.72Z"/></g></svg>