<?xml version="1.0" encoding="UTF-8"?><svg id="Layer_2" xmlns="http://www.w3.org/2000/svg" viewBox="0 0 24 24"><defs><style>.cls-1{fill:#fff;opacity:0;}.cls-2{fill:#5c6163;}</style></defs><g id="Layer_1-2"><g id="Icon_24px_Wilderness"><path id="Path_876" class="cls-1" d="M0,0h24v24H0V0Z"/><path id="Path_884" class="cls-2" d="M1.07,17.56l6.02-7.1c.08-.09.21-.12.32-.07l2.77,1.31c.13.06.29,0,.35-.13,0,0,0,0,0,0l2.3-5.39c.06-.14.21-.2.35-.14.06.02.11.07.13.13l3.38,6.86c.07.13.23.19.36.12.06-.03.11-.09.14-.16l1.08-3.21c.05-.14.2-.22.34-.17.07.02.12.07.15.13l4.21,7.87c.07.13.02.29-.11.37-.04.02-.08.03-.13.03H1.27c-.15,0-.27-.13-.26-.28,0-.06.02-.12.06-.17"/></g></g></svg>