<svg xmlns="http://www.w3.org/2000/svg" viewBox="0 0 100 100">
  <path d="M50 0C22.386 0 0 22.386 0 50s22.386 50 50 50 50-22.386 50-50S77.614 0 50 0zm0 90C27.56 90 10 72.44 10 50S27.56 10 50 10s40 17.56 40 40-17.56 40-40 40z" fill="#C0C0C0"/>
  <path d="M50 15C32.5 15 15 32.5 15 50s17.5 35 35 35 35-17.5 35-35S67.5 15 50 15zm0 60c-13.3 0-25-11.7-25-25S36.7 25 50 25s25 11.7 25 25-11.7 25-25 25z" fill="#FF0000"/>
  <path d="M50 30c-11.046 0-20 8.954-20 20s8.954 20 20 20 20-8.954 20-20-8.954-20-20-20z" fill="#FFFFFF"/>
</svg>