<?xml version="1.0" encoding="UTF-8"?><svg id="Layer_2" xmlns="http://www.w3.org/2000/svg" viewBox="0 0 56 56"><defs><style>.cls-1{fill:#1ca3c2;}.cls-2{fill:#fff;}</style></defs><g id="Layer_1-2"><circle class="cls-1" cx="28" cy="28" r="28"/><path class="cls-2" d="M38.57,16.51c.63-.78.55-1.4.26-1.71-.3-.33-.94-.44-1.68.05-4.23,2.61-8.77,5.22-13.16,7.75-1.29.74-2.58,1.49-3.85,2.22-.57.36-.86.73-.85,1.13,0,.4.32.77.92,1.11.55.31,1.13.63,1.74.96,1.18.64,2.4,1.31,3.47,1.98-1.36,1.91-3.11,3.87-4.8,5.76-1.09,1.22-2.22,2.49-3.22,3.71-.62.77-.55,1.38-.27,1.7.17.19.44.32.78.32.29,0,.62-.09.99-.31l.09-.05h0c3.41-2.13,7-4.22,10.47-6.24,2.1-1.22,4.28-2.49,6.37-3.74.61-.36.94-.76.93-1.18,0-.4-.3-.78-.87-1.1-.59-.33-1.21-.66-1.81-.98-1.16-.61-2.36-1.24-3.4-1.96,1.41-1.96,3.32-4.15,5.16-6.26.97-1.12,1.89-2.17,2.73-3.18Z"/></g></svg>