<?xml version="1.0" encoding="UTF-8"?><svg id="Layer_2" xmlns="http://www.w3.org/2000/svg" xmlns:xlink="http://www.w3.org/1999/xlink" viewBox="0 0 24 24"><defs><style>.cls-1{fill:none;}.cls-2{fill:#fff;opacity:0;}.cls-3{clip-path:url(#clippath);}.cls-4{fill:#0d2e7f;}</style><clipPath id="clippath"><rect class="cls-1" width="24" height="24"/></clipPath></defs><g id="Layer_1-2"><g id="Icon_24px_Gas"><path id="Path_877" class="cls-2" d="M0,0h24v24H0V0Z"/><g id="Group_6819"><g id="Group_6818"><g class="cls-3"><g id="Group_6817"><path id="Path_870" class="cls-4" d="M19.72,4.59h.1v-.76h-.1c-.64,0-1.16.52-1.16,1.16v.8c-.3.09-.51.37-.51.69v2.2c0,.32.21.6.51.69v6.21c0,.91-.74,1.65-1.65,1.65h-.24V6.49c0-1.93-1.56-3.49-3.49-3.49h-5.5c-1.93,0-3.49,1.57-3.49,3.49v14.51h8.99c1.75,0,3.22-1.29,3.46-3.02h.27c1.33,0,2.41-1.08,2.41-2.41v-6.22c.3-.09.5-.37.5-.68v-2.2c0-.31-.2-.59-.5-.68v-.8c0-.22.18-.4.4-.4M15.1,8.67c0,.5-.4.9-.9.9h-7.56c-.5,0-.9-.4-.9-.9v-3.11c0-.5.4-.9.9-.89h7.57c.5,0,.9.4.9.89v3.11Z"/></g></g></g></g></g></g></svg>