<?xml version="1.0" encoding="UTF-8"?><svg id="Layer_1" xmlns="http://www.w3.org/2000/svg" width="30.66" height="14.7" viewBox="0 0 30.66 14.7"><defs><style>.cls-1,.cls-2{fill:#1d252c;}.cls-2,.cls-3{fill-rule:evenodd;}.cls-3,.cls-4{fill:#b7bcc2;}</style></defs><g id="final---dec.11-2020"><g id="_0208-our-toggle"><g id="Final-Copy-2"><path class="cls-2" d="M7.35,13.44h7.14l3.26-12.18H7.35c-3.36,0-6.09,2.73-6.09,6.09s2.73,6.09,6.09,6.09Z"/></g></g></g><g id="final---dec.11-2020-2"><g id="_0208-our-toggle-2"><g id="Final-Copy-2-2"><path class="cls-3" d="M23.31,0H7.35C3.26,0,0,3.26,0,7.35s3.26,7.35,7.35,7.35h15.96c4.1,0,7.35-3.26,7.35-7.35S27.3,0,23.31,0ZM1.26,7.35C1.26,3.99,3.99,1.26,7.35,1.26h10.4l-3.26,12.18h-7.14c-3.36,0-6.09-2.73-6.09-6.09Z"/><path id="x" class="cls-1" d="M25.41,4.2c.21.21.21.63,0,.84h0l-2.21,2.31,2.31,2.31c.21.21.21.63,0,.84s-.63.21-.84,0h0l-2.31-2.31-2.31,2.31c-.21.21-.63.21-.84,0-.21-.21-.21-.63,0-.84h0l2.21-2.31-2.31-2.31c-.21-.21-.21-.63,0-.84.21-.21.63-.21.84,0h0l2.31,2.31,2.31-2.31c.21-.21.63-.21.84,0Z"/><path id="y" class="cls-4" d="M12.92,4.31c.21.21.32.63.11.84h0l-4.41,5.15c-.11.11-.21.21-.32.21-.21.11-.53.11-.74-.11h0l-2.31-2.31c-.21-.21-.21-.63,0-.84.21-.21.63-.21.84,0h0l1.89,1.79,3.99-4.73c.21-.21.63-.21.95,0Z"/></g></g></g></svg>