<svg id="Layer_1" data-name="Layer 1" xmlns:xlink="http://www.w3.org/1999/xlink" xmlns="http://www.w3.org/2000/svg" viewBox="0 0 25.03 25"><title>elements_v2</title><path fill="white" d="M12.52,2.26c3.33,0,3.73,0,5,.07a7,7,0,0,1,2.32.43,3.87,3.87,0,0,1,1.44.94,3.69,3.69,0,0,1,.93,1.43,6.79,6.79,0,0,1,.43,2.32c.06,1.32.08,1.71.08,5.05s0,3.73-.08,5.05a6.79,6.79,0,0,1-.43,2.32,3.69,3.69,0,0,1-.93,1.43,3.87,3.87,0,0,1-1.44.94,7,7,0,0,1-2.32.43c-1.31.06-1.71.07-5,.07s-3.73,0-5-.07a7,7,0,0,1-2.32-.43,4,4,0,0,1-1.44-.94,3.81,3.81,0,0,1-.93-1.43,6.79,6.79,0,0,1-.43-2.32c-.06-1.32-.07-1.71-.07-5.05s0-3.73.07-5a6.79,6.79,0,0,1,.43-2.32A3.81,3.81,0,0,1,3.71,3.7a4,4,0,0,1,1.44-.94,7,7,0,0,1,2.32-.43c1.32-.06,1.71-.07,5.05-.07m0-2.25C9.12,0,8.7,0,7.37.08a9.44,9.44,0,0,0-3,.59A6,6,0,0,0,2.12,2.11,6.15,6.15,0,0,0,.68,4.32a9.08,9.08,0,0,0-.58,3C0,8.68,0,9.11,0,12.5s0,3.82.08,5.15a9.08,9.08,0,0,0,.58,3,6.15,6.15,0,0,0,1.44,2.21,6,6,0,0,0,2.21,1.44,9.44,9.44,0,0,0,3,.59C8.7,25,9.12,25,12.52,25s3.81,0,5.15-.07a9.37,9.37,0,0,0,3-.59,5.9,5.9,0,0,0,2.21-1.44,6.15,6.15,0,0,0,1.44-2.21,9.08,9.08,0,0,0,.58-3c.06-1.33.08-1.76.08-5.15s0-3.82-.08-5.15a9.08,9.08,0,0,0-.58-3,6.15,6.15,0,0,0-1.44-2.21A5.9,5.9,0,0,0,20.7.67a9.37,9.37,0,0,0-3-.59C16.33,0,15.91,0,12.52,0Z"/><path fill="white" d="M12.52,6.09a6.41,6.41,0,1,0,6.41,6.41A6.41,6.41,0,0,0,12.52,6.09Zm0,10.57a4.16,4.16,0,1,1,4.16-4.16A4.17,4.17,0,0,1,12.52,16.66Z"/><circle fill="white" cx="19.18" cy="5.83" r="1.5"/></svg>