<svg id="Layer_1" data-name="Layer 1" xmlns:xlink="http://www.w3.org/1999/xlink" xmlns="http://www.w3.org/2000/svg" viewBox="0 0 25.03 25"><title>elements_v2</title><path fill="white" d="M24.51,6.46a3.15,3.15,0,0,0-2.22-2.23C20.34,3.7,12.5,3.7,12.5,3.7s-7.84,0-9.79.53A3.15,3.15,0,0,0,.49,6.46,33.27,33.27,0,0,0,0,12.53,33.21,33.21,0,0,0,.49,18.6a3.15,3.15,0,0,0,2.22,2.23c2,.53,9.79.53,9.79.53s7.84,0,9.79-.53a3.15,3.15,0,0,0,2.22-2.23A33.21,33.21,0,0,0,25,12.53,33.27,33.27,0,0,0,24.51,6.46ZM9.94,16.26V8.8l6.55,3.73Z"/></svg>